<svg width="19" height="17" viewBox="0 0 19 17" fill="none" xmlns="http://www.w3.org/2000/svg">
<g clip-path="url(#clip0_2540_272)">
<path d="M13.3527 8.04364C12.9458 7.9278 12.4047 7.94719 12.0144 7.81264C11.9221 7.78078 11.8156 7.66597 11.8028 7.66476C11.7833 7.66303 11.622 7.76208 11.5584 7.77887C10.9353 7.94338 10.1588 7.55636 9.68822 7.13626L9.39873 8.30409C9.39644 8.37699 9.48151 8.39586 9.53462 8.42374C10.1324 8.73579 10.9214 8.92385 11.4915 9.26567C11.6427 9.35624 11.7438 9.43538 11.8331 9.59746L12.996 12.6285C13.0904 13.4194 12.148 13.7884 11.7256 13.1397L10.6973 10.5028C9.84427 10.2905 8.99696 10.0512 8.1485 9.81876C8.03408 9.78742 7.91376 9.79123 7.78623 9.75123C7.2489 9.58291 6.94876 9.0087 6.99974 8.43552C7.08039 7.52778 7.58871 6.36048 7.7282 5.43006C7.97327 4.73082 8.77648 4.42466 9.3907 4.80095C10.0049 5.17724 9.88164 5.94488 10.4414 6.42697C10.9343 6.85157 11.3746 6.65832 11.842 6.92153C11.9053 6.9572 11.9559 7.04483 12.0056 7.06041C12.087 7.08604 12.1974 7.05781 12.29 7.07167C12.6373 7.12396 12.9925 7.18041 13.3378 7.24622C13.56 7.28847 13.9495 7.2876 14.0333 7.55047C14.1007 7.75411 14.2503 8.74999 14.3429 8.85111C14.3729 8.88384 14.806 8.97683 14.9229 9.03502C15.5584 9.35122 16.2079 10.43 16.4729 11.1033C17.2763 11.1139 18.0707 11.4727 18.5892 12.1232C18.7649 12.3437 19.3186 13.2083 18.7493 13.2663C18.487 13.293 18.3454 12.8938 18.1958 12.712C17.477 11.8396 16.2256 11.6296 15.2719 12.187C15.0427 12.3208 14.7111 12.7453 14.4572 12.5054L13.3527 8.04382V8.04364Z" fill="#6BACA5"/>
<path d="M1.13097 5.85531H0.229402C0.218911 5.85531 0.0953141 5.72197 0.0817086 5.69963C-0.0463143 5.49201 -0.057461 4.71778 0.296938 4.67969L6.67251 4.69406C6.71333 4.7164 6.76758 4.73372 6.80086 4.76627C6.96757 4.9287 6.96773 5.85531 6.68792 5.85531H5.83552C5.83208 5.85531 5.78635 5.90362 5.78635 5.90726V9.33593C5.78635 9.36606 5.6898 9.5775 5.66324 9.62148C5.52047 9.85751 5.27491 10.0099 5.01247 10.0423C4.07697 10.1576 2.95427 9.96279 1.99861 10.0473C1.69437 10.0224 1.37997 9.8705 1.23523 9.57231C1.21293 9.52624 1.13097 9.29801 1.13097 9.26684V5.85548V5.85531Z" fill="#6BACA5"/>
<path d="M2.93408 15.414L3.62518 11.7301C3.6196 11.6996 3.39978 11.6491 3.337 11.6117C2.94851 11.3796 3.03014 10.7091 3.47715 10.6023L8.62348 10.5986C9.329 10.7238 9.2013 11.6972 8.50775 11.7252L9.91715 14.3404H13.589V15.414H9.06475C9.30785 13.9622 8.45857 12.5261 7.10458 12.1686C5.20735 11.6674 3.49928 13.4027 3.85204 15.414H2.93408Z" fill="#6BACA5"/>
<path d="M16.1061 12.7915C17.7581 12.5821 18.9642 14.3356 18.163 15.8995C17.4183 17.3529 15.4011 17.3501 14.6539 15.8995C14.01 14.6492 14.7429 12.9643 16.1061 12.7917V12.7915Z" fill="#6BACA5"/>
<path d="M6.13887 12.7905C8.38443 12.4933 9.33108 15.589 7.43532 16.7229C5.95347 17.6093 4.16918 16.2361 4.48932 14.4766C4.64111 13.6426 5.33008 12.8975 6.13887 12.7905Z" fill="#6BACA5"/>
<path d="M8.29987 2.01611L10.6728 2.0265C11.1978 3.13615 10.284 4.36891 9.12964 4.07228C8.30528 3.8605 7.8299 2.78479 8.30003 2.01611H8.29987Z" fill="#6BACA5"/>
<path d="M9.22141 0.011613C9.70153 -0.0455316 10.3412 0.104776 10.6382 0.539075C10.7015 0.631545 10.7434 0.835361 10.8249 0.861336C11.0901 0.946014 11.8648 0.699773 11.9428 1.06602C12.0633 1.63158 11.2173 1.44352 10.8829 1.45529C10.796 1.45841 10.717 1.49079 10.6236 1.49304C9.76612 1.514 8.90356 1.48646 8.04625 1.47642C7.79119 0.697175 8.55884 0.0905765 9.22141 0.0117862V0.011613Z" fill="#6BACA5"/>
<path d="M15.8442 7.00483C16.0136 6.9863 16.0455 7.25211 16.0724 7.40501C16.1278 7.71913 16.1519 8.72973 15.966 8.97181C15.8944 9.06515 15.5292 8.9022 15.4352 8.84003C14.6907 8.34772 14.9772 7.10007 15.8442 7.00483Z" fill="#6BACA5"/>
</g>
<defs>
<clipPath id="clip0_2540_272">
<rect width="19" height="17" fill="white"/>
</clipPath>
</defs>
</svg>
