<svg width="17" height="17" viewBox="0 0 17 17" fill="none" xmlns="http://www.w3.org/2000/svg">
<path d="M17 0.708333V4.95833C17 6.66825 15.781 8.09908 14.1667 8.42846V16.2917C14.1667 16.6827 13.8493 17 13.4583 17C13.0673 17 12.75 16.6827 12.75 16.2917V8.42846C11.1357 8.09908 9.91667 6.66896 9.91667 4.95833V0.708333C9.91667 0.317333 10.234 0 10.625 0C11.016 0 11.3333 0.317333 11.3333 0.708333V4.95833C11.3333 5.88058 11.9276 6.65975 12.75 6.953V0.708333C12.75 0.317333 13.0673 0 13.4583 0C13.8493 0 14.1667 0.317333 14.1667 0.708333V6.953C14.989 6.65975 15.5833 5.88058 15.5833 4.95833V0.708333C15.5833 0.317333 15.9007 0 16.2917 0C16.6827 0 17 0.317333 17 0.708333ZM11.3333 13.4002C10.4989 13.8847 9.53275 14.1667 8.5 14.1667C5.37554 14.1667 2.83333 11.6245 2.83333 8.5C2.83333 5.37554 5.37554 2.83333 8.5 2.83333V0.708333C8.5 0.461125 8.55029 0.227375 8.62821 0.006375C8.585 0.006375 8.54321 0 8.5 0C3.80588 0 0 3.80588 0 8.5C0 13.1941 3.80588 17 8.5 17C9.503 17 10.4607 16.8172 11.3539 16.4985C11.3468 16.4298 11.3333 16.3625 11.3333 16.2917V13.4002ZM4.25 8.5C4.25 10.8439 6.15612 12.75 8.5 12.75C9.58942 12.75 10.5804 12.3349 11.3333 11.6592V9.43146C9.66096 8.63387 8.5 6.93104 8.5 4.95833V4.25C6.15612 4.25 4.25 6.15612 4.25 8.5Z" fill="#B1D2D0"/>
</svg>
