<svg width="17" height="17" viewBox="0 0 17 17" fill="none" xmlns="http://www.w3.org/2000/svg">
<path d="M14.1667 0H2.83333C2.08189 0 1.36122 0.298511 0.829864 0.829864C0.298511 1.36122 0 2.08189 0 2.83333L0 11.3333C0 12.0848 0.298511 12.8054 0.829864 13.3368C1.36122 13.8682 2.08189 14.1667 2.83333 14.1667H4.8875L8.04029 16.8321C8.16819 16.9404 8.33032 16.9998 8.49787 16.9998C8.66543 16.9998 8.82756 16.9404 8.95546 16.8321L12.1125 14.1667H14.1667C14.9181 14.1667 15.6388 13.8682 16.1701 13.3368C16.7015 12.8054 17 12.0848 17 11.3333V2.83333C17 2.08189 16.7015 1.36122 16.1701 0.829864C15.6388 0.298511 14.9181 0 14.1667 0ZM4.95833 3.54167H8.5C8.68786 3.54167 8.86803 3.61629 9.00087 3.74913C9.13371 3.88197 9.20833 4.06214 9.20833 4.25C9.20833 4.43786 9.13371 4.61803 9.00087 4.75087C8.86803 4.8837 8.68786 4.95833 8.5 4.95833H4.95833C4.77047 4.95833 4.5903 4.8837 4.45747 4.75087C4.32463 4.61803 4.25 4.43786 4.25 4.25C4.25 4.06214 4.32463 3.88197 4.45747 3.74913C4.5903 3.61629 4.77047 3.54167 4.95833 3.54167ZM12.0417 10.625H4.95833C4.77047 10.625 4.5903 10.5504 4.45747 10.4175C4.32463 10.2847 4.25 10.1045 4.25 9.91667C4.25 9.7288 4.32463 9.54864 4.45747 9.4158C4.5903 9.28296 4.77047 9.20833 4.95833 9.20833H12.0417C12.2295 9.20833 12.4097 9.28296 12.5425 9.4158C12.6754 9.54864 12.75 9.7288 12.75 9.91667C12.75 10.1045 12.6754 10.2847 12.5425 10.4175C12.4097 10.5504 12.2295 10.625 12.0417 10.625ZM12.0417 7.79167H4.95833C4.77047 7.79167 4.5903 7.71704 4.45747 7.5842C4.32463 7.45136 4.25 7.27119 4.25 7.08333C4.25 6.89547 4.32463 6.7153 4.45747 6.58247C4.5903 6.44963 4.77047 6.375 4.95833 6.375H12.0417C12.2295 6.375 12.4097 6.44963 12.5425 6.58247C12.6754 6.7153 12.75 6.89547 12.75 7.08333C12.75 7.27119 12.6754 7.45136 12.5425 7.5842C12.4097 7.71704 12.2295 7.79167 12.0417 7.79167Z" fill="#6BACA5"/>
</svg>
