<svg width="17" height="17" viewBox="0 0 17 17" fill="none" xmlns="http://www.w3.org/2000/svg">
<g clip-path="url(#clip0_2507_328)">
<path d="M16.0884 2.88788C15.8891 2.64877 15.6397 2.45647 15.3578 2.32462C15.0758 2.19277 14.7683 2.12462 14.4571 2.125H3.00475L2.975 1.87638C2.91412 1.35959 2.66573 0.883102 2.27693 0.537255C1.88813 0.191408 1.38594 0.000242104 0.865583 0L0.708333 0C0.520472 0 0.340304 0.0746278 0.207466 0.207466C0.0746278 0.340304 0 0.520472 0 0.708333C0 0.896195 0.0746278 1.07636 0.207466 1.2092C0.340304 1.34204 0.520472 1.41667 0.708333 1.41667H0.865583C1.03908 1.41669 1.20653 1.48039 1.33618 1.59567C1.46583 1.71096 1.54866 1.86982 1.56896 2.04213L2.54363 10.3296C2.64481 11.1915 3.05892 11.9863 3.70735 12.563C4.35578 13.1398 5.1934 13.4584 6.06121 13.4583H13.4583C13.6462 13.4583 13.8264 13.3837 13.9592 13.2509C14.092 13.118 14.1667 12.9379 14.1667 12.75C14.1667 12.5621 14.092 12.382 13.9592 12.2491C13.8264 12.1163 13.6462 12.0417 13.4583 12.0417H6.06121C5.62279 12.0404 5.19548 11.9036 4.83787 11.65C4.48026 11.3964 4.20985 11.0383 4.06371 10.625H12.507C13.3374 10.6251 14.1414 10.3333 14.7785 9.80081C15.4157 9.26829 15.8454 8.52883 15.9928 7.71163L16.5488 4.62754C16.6043 4.32155 16.5918 4.00709 16.5123 3.70645C16.4327 3.40581 16.288 3.12635 16.0884 2.88788Z" fill="#B1D2D0"/>
<path d="M4.95817 16.9998C5.74057 16.9998 6.37484 16.3656 6.37484 15.5832C6.37484 14.8008 5.74057 14.1665 4.95817 14.1665C4.17577 14.1665 3.5415 14.8008 3.5415 15.5832C3.5415 16.3656 4.17577 16.9998 4.95817 16.9998Z" fill="#B1D2D0"/>
<path d="M12.0417 16.9998C12.8241 16.9998 13.4583 16.3656 13.4583 15.5832C13.4583 14.8008 12.8241 14.1665 12.0417 14.1665C11.2593 14.1665 10.625 14.8008 10.625 15.5832C10.625 16.3656 11.2593 16.9998 12.0417 16.9998Z" fill="#B1D2D0"/>
</g>
<defs>
<clipPath id="clip0_2507_328">
<rect width="17" height="17" fill="white"/>
</clipPath>
</defs>
</svg>
