<svg width="116" height="55" viewBox="0 0 116 55" fill="none" xmlns="http://www.w3.org/2000/svg">
<path d="M7.76991 4.64719C8.84965 3.58566 9.46305 2.12013 11.1673 1.84339C13.5202 1.46261 11.1804 3.64828 10.4884 4.14117C10.9266 3.87756 13.3187 4.11794 13.3147 4.69668C13.3127 4.9411 12.522 5.65013 12.2954 5.80264C11.7444 6.17231 10.8953 6.50561 10.2356 6.5652C9.32305 6.64701 7.87969 6.30462 7.21392 6.96921C6.29935 7.88327 5.80279 9.39021 5.45328 10.6063C6.31144 9.73058 7.22298 9.06902 8.52533 9.19225C9.12563 9.24982 9.04203 9.42556 8.88188 9.95481C8.32287 11.7981 6.39706 12.7364 4.69887 13.2333C4.1731 14.6948 3.68056 16.2027 3.64028 17.7763C4.27181 16.8441 5.74639 15.3281 6.99233 15.6765C7.45061 15.8048 6.99031 16.7946 6.84729 17.1047C6.19964 18.5086 4.92247 19.2429 3.52847 19.7358C3.0168 21.8831 3.67251 24.0324 3.94144 26.1584C4.20231 26.1877 4.10158 26.1585 4.1449 26.011C4.49843 24.804 4.93758 23.2072 6.1251 22.5416C6.53807 22.3093 6.77678 22.1275 6.9188 22.7194C7.41738 24.8 6.0274 26.6837 4.46116 27.8351C4.58103 28.3512 4.7311 28.8683 4.93053 29.3592C5.23874 30.1157 6.07273 31.8842 6.51087 32.5215C6.5421 32.567 6.63476 32.6579 6.65994 32.6235C6.61562 31.7721 6.67001 30.9489 7.11118 30.1965C7.25421 29.951 7.7689 29.244 8.07207 29.438C8.37525 29.6319 8.74087 30.8853 8.77411 31.26C8.89095 32.5579 8.3128 33.3366 7.68832 34.3749C8.73483 36.1041 10.1218 37.6302 11.6961 38.8846C11.407 37.6958 10.849 36.4505 11.6135 35.3162C12.2752 34.3335 12.666 35.2243 12.9541 35.9576C13.4617 37.2464 13.3862 38.6473 13.1193 39.9795C14.7268 41.046 16.2951 42.1894 18.1433 42.8227C17.7163 42.3389 16.1933 39.5886 16.8279 39.129C18.1574 39.1099 19.2462 40.4663 19.5242 41.6925C19.6099 42.0692 19.6501 43.4256 19.8264 43.5337C21.6072 44.1185 23.4001 44.7376 25.2957 44.8427C24.506 44.0539 23.6247 43.261 23.4816 42.0672C23.3628 41.0774 23.5602 41.2087 24.3237 41.5258C25.3712 41.9601 26.4459 43.0489 26.9092 44.0842C27.0089 44.3074 27.0754 44.8376 27.157 44.9467C27.58 45.5103 32.3704 44.8528 33.2517 44.6407L32.0421 44.0882C31.3118 43.6135 30.3147 42.8964 30.4325 41.9157C31.7741 42.0662 32.9586 42.0843 34.0585 42.9752C34.3375 43.2004 35.1423 44.2397 35.2612 44.2831C35.4203 44.3417 36.1334 44.1337 36.4235 44.1296C36.7629 44.1246 37.052 44.2215 37.3814 44.2387C37.2837 45.0518 35.7064 45.1558 35.3901 45.4729C35.2974 45.5659 35.1232 46.2294 35.0033 46.4486C34.3426 47.6546 32.8136 48.7322 31.3894 48.4797C30.8908 48.3909 31.4297 47.5485 31.5999 47.2768C31.9524 46.7153 32.4248 46.4314 32.8499 45.9557L29.4797 46.2618C28.8481 46.4062 27.8369 46.0042 27.2779 46.1759C27.0855 46.2355 26.9475 46.5971 26.7541 46.7617C25.8335 47.5435 24.65 48.0525 23.4272 47.9778C21.9476 47.8879 21.9194 47.4101 22.9871 46.5183L24.2874 45.8547C23.6106 45.7204 22.9186 45.6012 22.2518 45.4204C21.6696 45.2629 19.9956 44.5791 19.5867 44.5659C19.3178 44.5579 18.3458 45.1023 17.964 45.2184C16.9296 45.5345 15.5578 45.6012 14.5506 45.1639C13.9331 44.8962 13.6662 44.7932 14.2272 44.1973C14.7339 43.659 15.8801 43.3691 16.5821 43.5307C16.6718 43.5418 16.6416 43.3378 16.6335 43.3287C16.5932 43.2852 15.7512 42.9489 15.5588 42.8398C15.0552 42.552 13.213 41.2238 12.9108 41.1491C12.6882 41.0945 11.7938 41.3783 11.4453 41.4066C10.3162 41.4985 9.49226 41.4066 8.54446 40.7834C7.30658 39.9704 6.65289 38.8604 8.82649 39.0866L10.5901 39.4391C10.0039 38.9573 9.43989 38.4331 8.92721 37.8746C8.59885 37.516 7.13636 35.5273 6.99535 35.4435C6.74959 35.2981 5.64365 35.2981 5.22968 35.2193C3.88201 34.9627 2.37721 34.1335 2.23419 32.6246C3.4348 32.1892 4.64146 32.6791 5.60537 33.4285C5.68293 33.4447 5.66682 33.3356 5.65372 33.2801C5.45832 32.4933 4.31713 30.7722 3.92633 29.8612C3.75611 29.4652 3.17494 27.5725 3.08831 27.4694C3.02486 27.3937 2.00957 27.1069 1.76079 26.9826C0.618595 26.4099 -0.116681 25.2414 0.0152657 23.9344C0.623631 23.8526 1.11415 24.1172 1.63086 24.3859L2.53434 24.9949C2.29563 23.288 2.1526 21.5942 2.23318 19.8651C0.833134 19.0651 -0.341293 16.7411 0.308369 15.1897C0.568233 14.5696 1.66712 15.5826 1.91087 15.924L2.53233 17.1673L3.44286 13.3899C1.78698 12.3637 0.708238 10.477 1.232 8.4913C2.62096 8.51554 3.40962 9.99521 3.69668 11.2042C3.75913 11.4678 3.62114 11.9991 3.94244 11.9163C4.33929 10.8052 4.62434 9.46495 5.13399 8.41353C5.4835 7.69339 6.62771 6.53086 6.5572 5.81678C6.40511 4.27146 5.53487 3.38568 6.40713 1.61008C6.55821 1.30202 7.14845 0.27989 7.51709 0.605114C8.42662 1.40807 8.26748 3.62505 7.77192 4.64315L7.76991 4.64719Z" fill="#27170D"/>
<path d="M112.117 12.0209C112.119 10.5776 112.967 8.63936 114.569 8.47978C115.223 10.3422 114.099 12.3936 112.463 13.3349L112.434 13.4652C112.873 14.6601 113.145 15.9125 113.326 17.172L113.725 16.3114C114.014 15.8478 114.35 15.364 114.867 15.1337C115.198 14.9873 115.449 14.856 115.594 15.2529C116.14 16.7437 115.03 19.1405 113.627 19.8697C113.699 21.5958 113.568 23.2957 113.325 24.9996C113.774 24.8218 114.127 24.4279 114.567 24.2249C114.981 24.034 115.377 23.8754 115.844 23.939C115.993 25.3329 115.194 26.4782 113.966 27.0559C113.731 27.166 112.814 27.4155 112.745 27.4983C112.69 27.564 112.421 28.6851 112.321 28.9416C111.782 30.3344 110.602 32.0252 110.205 33.2837C110.184 33.3493 110.185 33.4544 110.253 33.4322C111.249 32.7565 112.417 32.1565 113.62 32.6332C113.298 34.8462 110.788 35.3724 108.896 35.4037C107.82 36.8672 106.659 38.2711 105.27 39.4438C105.865 39.4256 106.439 39.1408 107.033 39.0913C108.04 39.0084 109.012 39.0246 108.087 40.1477C107.168 41.2628 105.793 41.5234 104.414 41.4113C104.066 41.383 103.172 41.0982 102.949 41.1537C102.69 41.2173 101.213 42.297 100.805 42.5415C100.543 42.697 99.2866 43.2687 99.2262 43.3333C98.9784 43.599 99.5223 43.4697 99.6291 43.4808C100.344 43.5575 101.113 43.6343 101.642 44.1908C102.26 44.8423 101.742 45.0362 101.093 45.2544C100.022 45.6139 98.7216 45.5048 97.66 45.1534C97.3457 45.0493 96.4956 44.5615 96.272 44.5686C95.8732 44.5807 94.1911 45.2665 93.6069 45.4241C92.9059 45.6129 92.1907 45.7664 91.4706 45.8573L92.648 46.3422C93.339 46.7906 94.2274 47.6834 92.8847 47.9319C91.7808 48.1359 90.4543 47.7885 89.5649 47.1108C89.2668 46.8835 88.7893 46.2199 88.4962 46.1624C86.6661 46.3593 84.8138 46.1947 83.0099 45.8573L84.2407 47.1976C84.6275 47.9289 85.1794 48.5308 83.9617 48.4874C82.744 48.444 81.635 47.5976 81.077 46.532C80.932 46.2543 80.7819 45.5988 80.6419 45.4533C80.3246 45.1251 79.0625 45.1786 78.981 44.4433C79.4956 44.1131 80.6016 44.3827 80.9954 44.1908C81.0851 44.1474 81.6451 43.3071 81.8999 43.0778C82.8981 42.1819 83.9939 42.0375 85.2862 41.9223C85.955 41.9516 84.9528 43.2697 84.7232 43.4848C84.5419 43.6555 84.282 43.7949 84.0856 43.9565L82.7067 44.6423C83.6142 44.8554 88.2172 45.518 88.6987 44.9463C88.8206 44.8019 89.0532 43.8636 89.2708 43.5C89.8278 42.5698 91.2641 41.3254 92.3761 41.3658C92.5332 42.8101 91.5804 43.9636 90.5621 44.8443C92.4788 44.7322 94.32 44.1454 96.1038 43.4838C96.267 42.9051 96.1824 42.3294 96.3335 41.6941C96.5782 40.6588 97.5159 39.3498 98.6158 39.1317C99.6221 38.9327 98.9492 40.573 98.7387 41.0759C98.4829 41.689 98.0719 42.2173 97.8161 42.8263C99.5485 42.0668 101.27 41.1679 102.695 39.9023C102.486 38.6145 102.397 37.1945 102.904 35.9602C103.187 35.2714 103.573 34.4099 104.204 35.2583C104.986 36.3107 104.608 37.7661 104.06 38.8378L104.209 38.8872C105.322 37.8944 106.439 36.8551 107.324 35.6471C107.515 35.3876 108.055 34.6815 108.14 34.4371C108.226 34.1927 107.578 33.4584 107.434 33.1312C107.061 32.2838 106.983 31.503 107.231 30.6041C107.777 28.6275 108.581 29.5113 109.048 30.9071L109.296 32.6252C109.998 31.0334 111.037 29.5729 111.404 27.8438C109.796 26.658 108.604 25.0056 108.905 22.8886C109.005 22.1847 109.202 22.2453 109.733 22.5442C110.606 23.0371 111.292 24.4723 111.62 25.3985C111.712 25.6591 111.654 26.0449 111.916 26.1611C112.053 24.7996 112.459 23.4411 112.521 22.0695C112.548 21.4655 112.525 20.5373 112.422 19.9485C112.359 19.5899 111.506 19.4303 111.191 19.2637C110.109 18.689 109.309 17.9123 108.877 16.7356C108.656 16.1306 108.415 15.6489 109.249 15.6509C110.505 15.6529 111.438 16.8467 112.218 17.678C112.171 16.8114 112.004 15.968 111.788 15.1307C111.722 14.8732 111.245 13.3208 111.162 13.2339C110.996 13.0592 109.817 12.7824 109.462 12.6158C108.21 12.0259 107.034 10.7129 106.89 9.30496C108.219 8.87874 109.406 9.57262 110.305 10.5069C110.269 9.61605 109.107 7.12333 108.364 6.74761C107.523 6.32239 105.944 6.74054 104.812 6.36986C104.351 6.21836 102.439 5.12755 102.798 4.54881C103.114 4.03875 104.913 3.94179 105.471 4.14278C105.07 3.76302 102.873 2.29749 104.255 1.96621C105.2 1.73996 106.336 2.42475 106.933 3.13277C107.352 3.63071 107.472 4.27813 108.089 4.5478C107.569 3.14489 107.407 1.5824 108.644 0.509766C109.691 1.41171 109.942 2.63483 109.791 3.98118C109.717 4.63769 109.204 5.58205 109.319 6.18907C109.396 6.60015 110.506 7.94043 110.794 8.55149C111.276 9.5706 111.463 10.7978 111.913 11.7724C111.96 11.8724 111.972 12.0098 112.117 12.0219V12.0209Z" fill="#27170D"/>
<path d="M57.4019 48.3077C59.8918 48.032 64.2732 50.7166 65.5242 52.8336C66.0379 53.7022 65.9362 54.5577 64.7537 54.5153C63.0988 54.4567 60.4125 51.365 59.084 50.3025C58.8584 50.1217 58.1221 49.4894 57.8935 49.5117C57.3778 49.5622 54.7106 52.2569 54.1023 52.776C53.3126 53.4497 51.3374 55.2 50.2738 54.39C49.2102 53.58 51.283 51.6852 51.8833 51.157C53.225 49.9773 55.6101 48.5057 57.4019 48.3077Z" fill="#27170D"/>
<path d="M68.3033 9.49535C68.1351 9.63978 68.3698 9.70746 69.0083 9.69736C69.3971 10.1367 68.5652 10.3882 68.2549 10.5074C63.9954 12.1426 54.6161 12.0305 50.1722 10.9609C49.7663 10.8629 47.8586 10.364 47.7629 10.0347C47.7377 9.94683 47.8515 9.91451 47.8566 9.89936C52.1997 10.4448 56.6517 10.9892 61.2436 10.7397C63.3397 10.6256 65.4166 10.365 67.4905 10.064C67.5287 10.0589 66.8277 10.1761 66.7924 9.89936C66.8821 9.49434 65.8124 9.73978 66.5688 9.69736L66.6917 9.89936L66.3483 10.1317C65.618 10.2791 64.5302 10.4357 63.8715 10.2024C63.7996 10.0886 63.7996 10.0886 63.8715 10.2024L63.5925 10.3599C61.0643 10.6791 58.4395 10.7821 55.9003 10.5528L55.6132 10.4054L60.8055 10.4124C61.2436 9.8832 61.6586 10.473 62.2901 10.3054C62.3828 10.2811 62.3858 10.0953 62.5299 10.0226C62.7132 9.92966 63.0546 9.92158 63.2671 9.89936L62.8643 9.19336C64.6501 9.62565 66.5225 9.19841 68.3033 9.49636V9.49535Z" fill="#27170D"/>
<path d="M64.1512 48.2076C65.6308 48.0197 69.973 48.9166 70.9752 50.0933C71.6832 50.9255 71.1615 51.7669 70.1623 51.8184C68.0895 51.9264 65.2994 49.5145 63.5156 48.5843C63.3192 48.2823 63.9568 48.2318 64.1512 48.2076Z" fill="#27170D"/>
<path d="M50.8576 48.2097C51.052 48.2006 51.2353 48.1693 51.4347 48.1744C51.6029 48.1794 52.5598 48.2532 52.3422 48.5865C50.5514 49.5177 47.7805 51.9286 45.6945 51.8205C44.7296 51.77 44.2109 50.9873 44.8334 50.1479C45.6794 49.0086 49.4666 48.2734 50.8566 48.2097H50.8576Z" fill="#27170D"/>
<path d="M97.4854 13.351C98.1029 13.2238 98.7072 14.049 98.7072 14.5964C98.7072 15.4044 97.138 16.8225 96.442 17.1598C96.0945 17.3285 95.0671 17.7527 95.0953 17.0325C95.1134 16.579 96.7149 13.9278 97.1047 13.5823C97.2125 13.4864 97.3414 13.3813 97.4854 13.352V13.351Z" fill="#27170D"/>
<path d="M68.3028 9.49505C68.5435 9.53545 68.8154 9.4799 69.0078 9.69705C68.8013 9.90613 68.3853 9.76068 68.1003 9.79806C68.0933 9.54858 68.0358 9.45263 68.3028 9.49505Z" fill="#27170D"/>
<path d="M55.337 27.5921C54.8152 27.4386 53.2691 28.2224 52.691 28.3829C52.4392 28.1062 53.1513 22.8865 53.1936 22.0704C53.2127 21.6906 53.2631 20.7462 53.0838 20.4655C52.7726 19.9776 51.161 19.8827 50.8467 20.4321C50.4519 21.123 50.4277 23.1511 50.2263 24.0449C49.9644 25.2125 48.9683 27.3568 48.1111 28.186C46.8924 29.3667 46.5217 27.9971 46.4411 26.9235C46.3001 25.0327 46.5852 23.14 46.6456 21.2624C46.6627 20.7392 46.7534 20.2332 46.3495 19.8443C45.8801 19.3938 44.4901 19.2706 44.1416 19.8615C43.9815 20.1322 43.8848 20.8371 43.8405 21.1755C43.6169 22.8693 43.7901 24.6621 43.6793 26.367C43.1062 27.78 40.4935 32.0109 40.1973 28.0345C40.0241 25.7004 40.3071 23.147 40.3031 20.8099C40.848 20.7806 41.8139 20.6624 42.1201 20.1574C42.6006 19.3625 41.5863 19.8493 41.2489 19.8887C40.9689 19.9221 40.6828 19.8918 40.4028 19.8998C40.5952 17.6707 40.571 14.0448 42.4686 12.5267C42.663 12.3712 42.9894 12.3025 43.0982 12.1975C43.1556 12.1419 43.1757 12.05 43.1838 11.9723C43.1405 11.3238 41.8361 11.546 41.41 11.6672C38.3884 12.5308 37.8042 17.193 37.6702 19.8352C37.1152 20.1756 36.5038 20.12 36.0889 20.7745C35.4009 21.8593 36.4797 21.1422 36.8715 21.0543C37.1092 21.0008 37.3429 20.9967 37.5826 21.0088L37.2814 25.7074C36.7607 25.9922 36.1654 26.1852 35.5681 26.1599C35.9841 24.2944 35.3113 20.8119 33.0762 20.4271C30.5985 20.0008 30.0697 22.5784 30.7858 24.4419C31.2713 25.7054 32.1476 26.3851 33.3442 26.9265C33.0591 28.7395 30.8775 31.5574 28.9718 29.796C26.8788 27.8608 27.8356 21.8653 30.532 20.6553C30.8886 20.4958 31.6389 20.5362 31.3912 20.0978C31.1263 19.6282 29.4069 19.9726 28.9224 20.1524C26.8556 20.921 25.3861 23.3571 25.1957 25.5054C25.1463 26.0569 25.3075 27.0528 25.1735 27.5032C25.1111 27.7153 24.2469 28.4042 24.0193 28.5678C22.2617 29.8273 19.8101 30.5777 18.2468 28.6324C16.2062 26.0922 16.3442 19.9433 17.8903 17.1688C19.2621 14.7084 21.6271 14.4124 21.8749 17.7223C21.9101 18.1949 21.7641 20.62 21.9645 20.7634C22.4359 21.0987 23.565 20.0726 23.8057 19.6665C24.8613 17.8808 24.0444 15.3265 22.026 14.6417C13.5491 11.7692 10.6614 30.3353 19.2299 31.2827C21.8537 31.5726 23.7191 30.0636 25.3951 28.2809C27.2192 33.5037 34.2658 31.9655 35.3828 27.0831C35.835 27.0588 36.2863 26.978 36.7224 26.8609C37.0639 26.77 37.4114 26.3781 37.4839 26.8154C37.7135 28.2042 37.4708 30.2373 38.9887 31.0635C41.26 32.2988 43.0548 29.1112 43.8798 27.4729C44.4468 30.7666 46.8299 31.1504 48.8061 28.5749L50.1729 26.2609C50.191 27.4315 50.0994 28.6041 49.9987 29.7717C47.672 31.4918 44.4096 34.136 44.8437 37.4125C45.1388 39.6416 47.819 39.7284 49.3984 38.7649C52.2589 37.0186 52.3939 32.2644 52.7403 29.2889L55.6109 27.8264C55.5263 27.7456 55.4588 27.6264 55.338 27.5911L55.337 27.5921ZM33.5527 25.9599C31.9421 25.6307 31.0316 23.8379 31.2451 22.2815C31.3529 21.4967 32.0942 20.7947 32.8466 21.3664C33.8327 22.1158 33.7148 24.8499 33.5527 25.9599ZM47.8513 38.0235C46.9216 38.6194 46.0463 38.0609 45.9426 37.0186C45.7089 34.6622 48.1413 32.2796 49.8697 31.008C49.8647 32.8876 49.5928 36.9065 47.8513 38.0225V38.0235Z" fill="#27170D"/>
<path d="M100.933 25.0955C100.808 25.1632 99.7034 27.0853 99.3771 27.4741C98.4555 28.568 96.8902 29.9527 95.3734 29.2649C94.5223 28.8791 93.9723 27.562 93.929 26.6611C95.6755 26.3853 97.5742 25.3864 98.3729 23.7391C99.7457 20.909 97.8068 18.4426 94.765 19.5152C92.7183 20.2374 91.565 22.3847 91.1944 24.4188C91.1309 24.7653 91.2498 25.2551 91.0362 25.5238C90.579 26.0965 88.2885 27.0045 87.5412 27.0267C86.954 27.0449 87.3317 26.0076 87.3438 25.6076C87.3941 24.0259 87.3458 22.4392 87.4415 20.8575C87.5764 18.6092 87.8766 13.3148 89.8074 11.9189C90.0532 11.7412 91.1269 11.4412 90.6616 11.0614C89.9233 10.4584 87.9138 11.4543 87.2914 12.0229C84.9103 14.2005 84.6283 20.0879 84.5145 23.1765C84.4973 23.6421 84.6293 26.3429 84.5145 26.4591C84.4832 26.4904 84.0844 26.4459 83.9383 26.5883C83.757 26.7641 83.8507 27.255 83.7923 27.5014C83.6654 28.0276 82.5735 29.6739 82.0276 29.782C81.3286 29.9204 81.2349 28.7286 81.1966 28.2296C81.0164 25.8753 81.4424 23.3058 81.6952 20.9646C81.6539 20.2434 80.3818 20.3212 79.8832 20.4515C78.5789 20.7929 78.7138 23.1078 78.5315 24.1461C78.4268 24.7431 78.0732 25.7026 77.8466 26.2874C77.5062 27.1651 76.4556 29.685 75.3084 29.4952C74.3807 29.3416 74.4724 26.5389 74.56 25.8207C74.7363 24.3825 75.672 21.2454 77.5193 21.41C77.8879 21.4433 78.453 21.9382 78.6816 21.7736C79.021 21.1807 78.1337 20.5565 77.6139 20.4111C74.5177 19.5425 72.0974 23.4815 71.8405 26.1237C71.7368 27.1964 72.1578 27.4761 71.2714 28.2801C69.9641 29.4649 67.3856 30.4537 65.7911 29.3376C62.6506 27.1388 62.7271 16.6862 66.4921 15.4095C68.8863 14.5975 68.7383 18.3325 68.7101 19.7536C68.702 20.1717 68.3454 20.8909 69.1492 20.8101C70.1454 20.7091 70.929 19.3567 71.0216 18.4355C71.4558 14.1076 66.6755 13.4016 63.9237 15.661C60.0217 18.8658 59.4708 29.4214 65.081 31.0607C67.9204 31.8909 70.1927 30.5506 72.0289 28.4862C72.2122 29.6982 73.1137 30.9779 74.409 31.1021C76.6823 31.3192 77.6059 28.3993 78.3482 26.7883C78.4147 26.6449 78.2878 26.5146 78.5769 26.5671V28.3347C78.5769 28.4973 78.7874 29.3558 78.8508 29.575C79.5186 31.8788 81.6096 31.798 83.0107 30.1547C83.6583 29.3952 83.7812 28.7023 84.2284 27.9418C84.2969 27.8256 84.3765 27.7085 84.4701 27.8781C84.6142 28.1377 84.4923 29.7961 84.5145 30.2577C84.6242 32.5272 84.9234 38.351 87.7356 38.9449C91.8864 39.8226 91.5419 30.585 89.0994 28.5892C88.6955 28.2589 88.208 28.1205 87.8423 27.7802C89.0762 27.7216 90.1791 27.057 91.1652 26.3651C91.8884 30.9657 96.164 32.406 99.3277 28.7407C99.7558 28.2448 101.318 25.953 101.299 25.4046C101.293 25.24 101.145 24.9834 100.933 25.0986V25.0955ZM89.8276 31.997C90.0059 33.1029 90.2083 36.7147 89.2504 37.4197C88.1969 38.1944 87.793 36.135 87.6701 35.4734C87.3105 33.5312 87.4082 31.593 87.3427 29.6406C87.3307 29.2851 87.0668 28.8619 87.3881 28.5872C89.0983 29.1013 89.5627 30.3567 89.8266 31.998L89.8276 31.997ZM96.1509 20.096C97.3878 19.9748 97.4029 21.5726 97.2841 22.4473C97.0595 24.0977 95.5053 25.8339 93.785 25.8571C93.6137 24.433 94.4084 20.2657 96.1509 20.096Z" fill="#27170D"/>
<path d="M49.0164 9.39615C48.5994 9.43252 48.0021 9.481 47.8561 9.89914C50.0025 9.69613 52.1176 10.2425 54.2529 10.4031C54.7022 10.4375 55.1625 10.3819 55.6117 10.4031L60.6509 10.4102C60.7314 10.4062 60.813 10.4031 60.8936 10.3991C60.8926 10.39 60.8916 10.3799 60.8896 10.3708C60.9651 10.2749 61.5543 10.2496 61.8928 10.3446C62.0227 10.3365 62.1526 10.3284 62.2836 10.3193C62.3984 10.2355 62.5525 10.1698 62.6542 10.1415C63.6504 10.1516 63.593 9.58402 62.8647 9.19213C62.7157 9.15577 62.5142 9.22546 62.4618 8.99114C62.5807 8.98508 62.7006 8.93963 62.7993 8.87398C64.8097 7.52965 66.1151 4.3269 66.2883 1.96852C66.3115 1.64531 66.3931 0 66.0375 0H51.9363C51.8467 0 51.4015 0.135342 51.2816 0.202003C52.583 0.626208 55.3085 0.757509 56.767 0.81205C59.8088 0.925172 62.8657 0.674688 65.8864 0.405015C65.9247 0.514096 65.7857 0.625198 65.7857 0.656509V2.17153C65.7857 2.67654 65.266 4.33902 65.0565 4.87432C64.3585 6.657 62.8577 8.95276 60.7496 8.98811C63.0581 7.28725 64.6213 4.11581 64.7734 1.24737C64.7936 0.863562 64.5398 0.891841 64.2235 0.901941C60.6025 1.01809 55.3075 1.65137 51.8638 0.678729C51.5093 0.578738 51.1769 0.119181 51.1295 0.708019C50.5564 0.455515 50.0065 0.263614 49.3679 0.301995C46.8015 0.459557 46.315 3.46738 47.5126 5.34398C48.7485 7.28119 51.3894 7.7569 53.5267 7.7973L55.0074 9.0881C53.0654 9.66886 50.9795 9.22142 49.0164 9.39413V9.39615ZM48.1592 3.43506L47.9588 3.13306C47.5267 4.38548 48.4 5.39044 49.2672 6.16108C48.1844 5.7086 47.2457 4.26024 47.2447 3.08155C47.2437 1.87963 48.2287 0.844371 49.4243 0.80599C50.0176 0.78781 51.5546 1.21404 51.2323 2.02003C50.5262 1.29989 49.3246 1.02718 48.4674 1.67258C48.1975 1.87559 47.6788 2.57654 48.1592 2.82804C48.3295 1.68874 49.7748 1.56148 50.5705 2.27859C50.7518 2.44221 51.5566 3.58555 51.6614 3.81078C52.026 4.59556 52.1619 5.69749 52.6917 6.46308C50.7972 6.62973 48.2831 5.59143 48.1592 3.43405V3.43506Z" fill="#27170D"/>
<path d="M66.6915 9.89869H66.0862C65.9059 9.19976 66.7378 9.5866 67.2354 9.49267L67.2958 9.79668L66.7912 9.89768C66.758 9.8997 66.7237 9.89566 66.6905 9.89768L66.6915 9.89869Z" fill="#27170D"/>
<path d="M65.08 9.49609C64.9813 9.77688 64.5563 9.77385 64.376 9.54558L65.08 9.49609Z" fill="#27170D"/>
<path d="M63.8716 10.2024C63.8283 10.2196 63.499 10.2368 63.4688 10.1519C63.777 9.6439 64.1023 10.1115 63.8716 10.2024Z" fill="#27170D"/>
</svg>
