<svg width="104" height="49" viewBox="0 0 104 49" fill="none" xmlns="http://www.w3.org/2000/svg">
<path d="M6.97299 4.17048C7.942 3.21783 8.49249 1.90261 10.0219 1.65425C12.1335 1.31253 10.0337 3.27403 9.41268 3.71636C9.80588 3.47978 11.9527 3.69551 11.9491 4.21489C11.9473 4.43425 11.2377 5.07055 11.0343 5.20742C10.5399 5.53917 9.77786 5.83829 9.18579 5.89177C8.36684 5.96519 7.07152 5.65792 6.47403 6.25434C5.65327 7.07465 5.20763 8.42704 4.89397 9.51837C5.66411 8.7325 6.48216 8.13879 7.65093 8.24938C8.18967 8.30104 8.11465 8.45876 7.97092 8.93373C7.46925 10.5879 5.74095 11.43 4.21694 11.876C3.74509 13.1876 3.30307 14.5409 3.26691 15.9531C3.83367 15.1164 5.15701 13.7559 6.27516 14.0686C6.68645 14.1837 6.27336 15.072 6.145 15.3503C5.56378 16.6102 4.41761 17.2692 3.16658 17.7115C2.70739 19.6386 3.29584 21.5674 3.53719 23.4755C3.7713 23.5017 3.68091 23.4755 3.71978 23.3431C4.03706 22.2599 4.43116 20.8269 5.49689 20.2296C5.8675 20.0211 6.08173 19.8579 6.20918 20.3891C6.65662 22.2563 5.40921 23.9468 4.00361 24.9801C4.11118 25.4433 4.24586 25.9074 4.42484 26.3479C4.70144 27.0268 5.44988 28.614 5.84309 29.1859C5.87111 29.2267 5.95427 29.3083 5.97687 29.2775C5.9371 28.5134 5.98591 27.7746 6.38183 27.0993C6.51018 26.8791 6.97209 26.2446 7.24417 26.4186C7.51625 26.5926 7.84437 27.7175 7.8742 28.0538C7.97906 29.2185 7.46021 29.9174 6.89978 30.8492C7.83895 32.401 9.08365 33.7706 10.4965 34.8964C10.2371 33.8295 9.73628 32.7119 10.4224 31.694C11.0162 30.812 11.367 31.6115 11.6255 32.2696C12.0811 33.4262 12.0133 34.6834 11.7737 35.8789C13.2164 36.8361 14.6238 37.8622 16.2825 38.4305C15.8992 37.9963 14.5325 35.5282 15.102 35.1157C16.2951 35.0985 17.2723 36.3158 17.5218 37.4162C17.5986 37.7543 17.6347 38.9717 17.7929 39.0686C19.3911 39.5935 21 40.1491 22.7012 40.2434C21.9926 39.5354 21.2016 38.8239 21.0733 37.7525C20.9666 36.8642 21.1438 36.9821 21.8289 37.2667C22.769 37.6564 23.7335 38.6336 24.1493 39.5626C24.2388 39.763 24.2985 40.2388 24.3717 40.3367C24.7513 40.8425 29.0504 40.2524 29.8413 40.0621L28.7557 39.5663C28.1003 39.1402 27.2055 38.4967 27.3112 37.6166C28.5153 37.7516 29.5783 37.7679 30.5653 38.5674C30.8157 38.7695 31.538 39.7022 31.6446 39.7412C31.7874 39.7938 32.4274 39.6071 32.6878 39.6034C32.9924 39.5989 33.2518 39.6859 33.5474 39.7013C33.4597 40.431 32.0442 40.5244 31.7603 40.809C31.6772 40.8924 31.5208 41.4879 31.4132 41.6846C30.8202 42.7668 29.4481 43.734 28.17 43.5074C27.7225 43.4276 28.2061 42.6717 28.3589 42.4278C28.6752 41.9239 29.0992 41.6692 29.4806 41.2422L26.4561 41.5169C25.8894 41.6465 24.9818 41.2857 24.4801 41.4398C24.3075 41.4933 24.1837 41.8178 24.0101 41.9656C23.1839 42.6671 22.1218 43.124 21.0245 43.0569C19.6966 42.9762 19.6713 42.5475 20.6294 41.7471L21.7964 41.1516C21.189 41.031 20.568 40.9241 19.9696 40.7618C19.4471 40.6204 17.9448 40.0068 17.5778 39.995C17.3365 39.9878 16.4642 40.4763 16.1216 40.5806C15.1933 40.8643 13.9621 40.9241 13.0582 40.5316C12.5041 40.2914 12.2645 40.1989 12.768 39.6642C13.2227 39.181 14.2514 38.9209 14.8814 39.0659C14.9619 39.0759 14.9347 38.8928 14.9275 38.8846C14.8913 38.8457 14.1357 38.5438 13.963 38.4459C13.5111 38.1876 11.8578 36.9957 11.5866 36.9286C11.3868 36.8796 10.5842 37.1343 10.2714 37.1597C9.25811 37.2422 8.5187 37.1597 7.66811 36.6005C6.55719 35.8708 5.97054 34.8746 7.92121 35.0777L9.50397 35.394C8.97789 34.9616 8.47169 34.4912 8.0116 33.99C7.71692 33.6682 6.40443 31.8834 6.27788 31.8082C6.05732 31.6777 5.06481 31.6777 4.6933 31.607C3.48386 31.3767 2.1334 30.6326 2.00504 29.2784C3.08251 28.8877 4.16541 29.3273 5.03046 29.9999C5.10007 30.0144 5.0856 29.9165 5.07385 29.8666C4.89849 29.1605 3.87435 27.616 3.52363 26.7984C3.37086 26.4431 2.8493 24.7444 2.77156 24.652C2.71462 24.584 1.80346 24.3266 1.5802 24.2151C0.555149 23.7012 -0.104714 22.6524 0.0137 21.4795C0.559669 21.4061 0.999878 21.6436 1.46359 21.8847L2.27441 22.4313C2.06018 20.8994 1.93182 19.3793 2.00414 17.8275C0.747684 17.1097 -0.306288 15.024 0.276741 13.6317C0.509953 13.0752 1.49613 13.9843 1.71488 14.2907L2.2726 15.4065L3.08975 12.0165C1.6037 11.0955 0.635598 9.40235 1.10564 7.62032C2.35215 7.64207 3.05992 8.96998 3.31753 10.055C3.37358 10.2915 3.24974 10.7683 3.53809 10.694C3.89424 9.69693 4.15004 8.49411 4.60743 7.55053C4.92109 6.90425 5.94795 5.86095 5.88467 5.22011C5.74818 3.83329 4.96719 3.03836 5.74999 1.44487C5.88557 1.16841 6.41527 0.251108 6.74611 0.542976C7.56235 1.26358 7.41953 3.25318 6.9748 4.16685L6.97299 4.17048Z" fill="white"/>
<path d="M100.618 10.7875C100.619 9.49225 101.38 7.75282 102.819 7.60961C103.405 9.28105 102.396 11.122 100.929 11.9668L100.902 12.0837C101.296 13.156 101.54 14.28 101.703 15.4103L102.061 14.638C102.321 14.222 102.622 13.7878 103.086 13.5811C103.383 13.4497 103.608 13.3319 103.738 13.6881C104.228 15.026 103.232 17.1769 101.973 17.8313C102.038 19.3804 101.92 20.9059 101.702 22.4351C102.105 22.2755 102.422 21.922 102.817 21.7398C103.188 21.5685 103.544 21.4262 103.963 21.4833C104.096 22.7342 103.379 23.7621 102.277 24.2805C102.067 24.3793 101.243 24.6032 101.182 24.6775C101.132 24.7365 100.891 25.7426 100.801 25.9728C100.317 27.2228 99.2581 28.7401 98.9019 29.8695C98.883 29.9284 98.8839 30.0227 98.9453 30.0028C99.8393 29.3964 100.887 28.858 101.967 29.2858C101.678 31.2718 99.4253 31.744 97.7268 31.7721C96.7615 33.0855 95.7192 34.3454 94.4727 35.3978C95.0069 35.3815 95.5222 35.1259 96.0555 35.0815C96.9594 35.0071 97.8317 35.0216 97.001 36.0296C96.1766 37.0303 94.9428 37.2641 93.7053 37.1635C93.3925 37.1381 92.5899 36.8825 92.3901 36.9324C92.1578 36.9895 90.8326 37.9584 90.4656 38.1778C90.2306 38.3174 89.1034 38.8304 89.0492 38.8884C88.8268 39.1268 89.3149 39.0108 89.4108 39.0208C90.0525 39.0896 90.7422 39.1585 91.2168 39.658C91.7718 40.2426 91.3072 40.4167 90.7242 40.6124C89.7633 40.9351 88.5963 40.8372 87.6436 40.5218C87.3616 40.4284 86.5987 39.9906 86.398 39.997C86.04 40.0079 84.5305 40.6233 84.0062 40.7647C83.3771 40.9342 82.7353 41.072 82.089 41.1536L83.1457 41.5887C83.7658 41.9911 84.563 42.7924 83.3581 43.0154C82.3674 43.1985 81.1769 42.8867 80.3788 42.2784C80.1112 42.0745 79.6828 41.479 79.4197 41.4273C77.7773 41.6041 76.115 41.4563 74.4961 41.1536L75.6007 42.3564C75.9478 43.0126 76.4431 43.5529 75.3503 43.5139C74.2574 43.4749 73.2622 42.7153 72.7614 41.7591C72.6313 41.5098 72.4966 40.9215 72.3709 40.791C72.0862 40.4964 70.9536 40.5445 70.8804 39.8846C71.3423 39.5882 72.3348 39.8302 72.6882 39.658C72.7687 39.619 73.2712 38.8649 73.4999 38.6591C74.3957 37.8551 75.3792 37.7255 76.5389 37.6222C77.1391 37.6484 76.2397 38.8313 76.0336 39.0244C75.8709 39.1776 75.6377 39.3027 75.4614 39.4477L74.224 40.0631C75.0384 40.2544 79.1693 40.849 79.6014 40.336C79.7108 40.2064 79.9196 39.3643 80.1148 39.038C80.6147 38.2032 81.9037 37.0865 82.9016 37.1227C83.0426 38.4189 82.1875 39.454 81.2737 40.2444C82.9938 40.1438 84.6462 39.6172 86.247 39.0235C86.3935 38.5041 86.3175 37.9874 86.4531 37.4173C86.6728 36.4882 87.5143 35.3135 88.5014 35.1177C89.4044 34.9391 88.8006 36.4112 88.6117 36.8626C88.3821 37.4128 88.0133 37.8868 87.7837 38.4334C89.3384 37.7518 90.8832 36.9451 92.1623 35.8093C91.9743 34.6536 91.8947 33.3792 92.3494 32.2715C92.6034 31.6534 92.9505 30.8802 93.5164 31.6416C94.2178 32.5861 93.8789 33.8922 93.3871 34.8539L93.5209 34.8984C94.5197 34.0073 95.5222 33.0746 96.3167 31.9906C96.4876 31.7576 96.9721 31.124 97.0489 30.9047C97.1257 30.6853 96.5445 30.0263 96.4153 29.7327C96.0808 28.9722 96.0103 28.2715 96.2327 27.4648C96.7226 25.6909 97.4448 26.484 97.8633 27.7367L98.0866 29.2785C98.7157 27.85 99.6486 26.5393 99.9776 24.9875C98.5349 23.9234 97.4647 22.4405 97.735 20.5406C97.8254 19.9089 98.0016 19.9632 98.478 20.2315C99.2617 20.6739 99.8773 21.9619 100.172 22.7931C100.254 23.0269 100.203 23.3732 100.438 23.4774C100.561 22.2556 100.925 21.0364 100.98 19.8055C101.004 19.2635 100.984 18.4305 100.891 17.902C100.835 17.5803 100.07 17.437 99.7869 17.2875C98.8161 16.7717 98.0974 16.0747 97.7106 15.0187C97.5117 14.4758 97.2957 14.0434 98.0441 14.0452C99.1713 14.047 100.008 15.1184 100.709 15.8644C100.666 15.0867 100.516 14.3298 100.323 13.5784C100.263 13.3473 99.8357 11.9541 99.7607 11.8761C99.6115 11.7193 98.5539 11.471 98.2348 11.3214C97.1113 10.7921 96.0564 9.61371 95.9271 8.35016C97.1194 7.96765 98.1851 8.59036 98.9914 9.4288C98.9598 8.62934 97.9167 6.39228 97.2496 6.0551C96.4948 5.67349 95.0784 6.04875 94.0623 5.71609C93.6483 5.58013 91.9327 4.60119 92.2545 4.08181C92.5383 3.62407 94.1527 3.53705 94.6535 3.71743C94.2938 3.37662 92.3223 2.0614 93.5625 1.76409C94.4104 1.56105 95.43 2.17561 95.9651 2.81101C96.3411 3.25788 96.4496 3.83889 97.0028 4.08091C96.5364 2.82189 96.3909 1.41965 97.5009 0.457031C98.4409 1.26647 98.666 2.36414 98.5304 3.57241C98.4644 4.16158 98.0034 5.00908 98.1065 5.55384C98.1761 5.92276 99.1722 7.12558 99.4307 7.67397C99.8628 8.58855 100.031 9.68985 100.435 10.5645C100.477 10.6543 100.487 10.7776 100.618 10.7884V10.7875Z" fill="white"/>
<path d="M51.5147 43.3531C53.7492 43.1056 57.6813 45.5149 58.8039 47.4147C59.2649 48.1943 59.1736 48.962 58.1124 48.9239C56.6273 48.8714 54.2165 46.0968 53.0243 45.1433C52.8218 44.981 52.161 44.4136 51.9558 44.4335C51.493 44.4788 49.0994 46.8972 48.5535 47.3631C47.8448 47.9677 46.0722 49.5385 45.1177 48.8115C44.1631 48.0846 46.0234 46.3841 46.5621 45.9101C47.7662 44.8514 49.9066 43.5307 51.5147 43.3531Z" fill="white"/>
<path d="M61.2978 8.52151C61.1468 8.65113 61.3574 8.71186 61.9305 8.70279C62.2794 9.09709 61.5328 9.32279 61.2544 9.42974C57.4317 10.8972 49.0144 10.7966 45.0263 9.83673C44.662 9.7488 42.95 9.30103 42.8641 9.00554C42.8415 8.92668 42.9436 8.89767 42.9482 8.88408C46.8459 9.37354 50.8412 9.86211 54.9622 9.63822C56.8432 9.53579 58.7071 9.30194 60.5683 9.03182C60.6027 9.02729 59.9735 9.13244 59.9419 8.88408C60.0223 8.5206 59.0624 8.74086 59.7412 8.70279L59.8515 8.88408L59.5433 9.09255C58.8879 9.22489 57.9117 9.36539 57.3205 9.156C57.256 9.05388 57.256 9.05388 57.3205 9.156L57.0701 9.2974C54.8013 9.58383 52.4457 9.67629 50.1669 9.47053L49.9093 9.33819L54.569 9.34454C54.9622 8.86957 55.3346 9.39892 55.9014 9.24846C55.9845 9.2267 55.9872 9.05992 56.1165 8.99466C56.281 8.91127 56.5874 8.90402 56.7782 8.88408L56.4166 8.25049C58.0192 8.63844 59.6996 8.25502 61.2978 8.52241V8.52151Z" fill="white"/>
<path d="M57.572 43.2636C58.8998 43.095 62.7966 43.8999 63.696 44.9559C64.3315 45.7028 63.8632 46.4578 62.9666 46.5041C61.1063 46.601 58.6024 44.4365 57.0016 43.6017C56.8253 43.3307 57.3975 43.2854 57.572 43.2636Z" fill="white"/>
<path d="M45.6411 43.2646C45.8156 43.2565 45.9801 43.2284 46.1591 43.2329C46.31 43.2374 47.1688 43.3036 46.9735 43.6027C45.3663 44.4385 42.8797 46.6021 41.0076 46.5051C40.1417 46.4598 39.6762 45.7573 40.2348 45.0041C40.9941 43.9816 44.3928 43.3217 45.6402 43.2646H45.6411Z" fill="white"/>
<path d="M87.4873 11.981C88.0414 11.8668 88.5838 12.6074 88.5838 13.0987C88.5838 13.8238 87.1755 15.0964 86.5509 15.3992C86.239 15.5505 85.317 15.9312 85.3423 15.2849C85.3586 14.878 86.7958 12.4986 87.1456 12.1886C87.2424 12.1025 87.3581 12.0082 87.4873 11.9819V11.981Z" fill="white"/>
<path d="M61.2976 8.5214C61.5136 8.55766 61.7577 8.5078 61.9303 8.70268C61.745 8.89031 61.3717 8.75979 61.1159 8.79333C61.1096 8.56944 61.058 8.48333 61.2976 8.5214Z" fill="white"/>
<path d="M49.6617 24.7616C49.1935 24.6239 47.8059 25.3272 47.2871 25.4714C47.0611 25.223 47.7002 20.5386 47.7382 19.8062C47.7553 19.4654 47.8005 18.6179 47.6396 18.3659C47.3603 17.9281 45.914 17.8429 45.632 18.336C45.2777 18.956 45.256 20.7761 45.0752 21.5783C44.8402 22.6261 43.9462 24.5504 43.177 25.2946C42.0832 26.3542 41.7506 25.1251 41.6783 24.1616C41.5517 22.4648 41.8075 20.7661 41.8618 19.0811C41.8771 18.6116 41.9585 18.1574 41.596 17.8085C41.1748 17.4042 39.9274 17.2936 39.6146 17.8239C39.4709 18.0668 39.3841 18.6995 39.3443 19.0031C39.1437 20.5232 39.2991 22.1321 39.1997 23.6621C38.6854 24.9302 36.3406 28.7272 36.0749 25.1586C35.9194 23.0639 36.1734 20.7725 36.1698 18.675C36.6588 18.6487 37.5256 18.5427 37.8004 18.0895C38.2316 17.3761 37.3214 17.813 37.0185 17.8484C36.7673 17.8783 36.5105 17.8511 36.2593 17.8583C36.4319 15.8579 36.4102 12.6038 38.1132 11.2414C38.2877 11.1019 38.5805 11.0402 38.6781 10.9459C38.7297 10.8961 38.7477 10.8136 38.755 10.7438C38.7161 10.1619 37.5455 10.3613 37.1632 10.4701C34.4514 11.2451 33.9271 15.4291 33.8069 17.8003C33.3089 18.1058 32.7602 18.0559 32.3878 18.6433C31.7704 19.6168 32.7385 18.9732 33.0901 18.8944C33.3034 18.8463 33.5131 18.8427 33.7283 18.8536L33.458 23.0703C32.9907 23.3259 32.4565 23.499 31.9204 23.4763C32.2937 21.8022 31.6899 18.6768 29.6841 18.3315C27.4605 17.949 26.9859 20.2622 27.6286 21.9345C28.0643 23.0684 28.8507 23.6785 29.9246 24.1643C29.6688 25.7913 27.7109 28.3202 26.0006 26.7394C24.1223 25.0027 24.981 19.6222 27.4008 18.5363C27.7208 18.3931 28.3942 18.4294 28.1719 18.036C27.9341 17.6145 26.3911 17.9236 25.9564 18.0849C24.1015 18.7747 22.7827 20.961 22.6118 22.889C22.5676 23.3839 22.7122 24.2776 22.592 24.6819C22.5359 24.8722 21.7603 25.4904 21.5561 25.6372C19.9787 26.7675 17.7786 27.441 16.3757 25.6953C14.5443 23.4156 14.6682 17.8973 16.0557 15.4074C17.2868 13.1993 19.4093 12.9337 19.6316 15.9041C19.6633 16.3283 19.5322 18.5046 19.7121 18.6333C20.1351 18.9342 21.1484 18.0133 21.3644 17.6489C22.3117 16.0464 21.5787 13.754 19.7672 13.1395C12.1598 10.5616 9.56826 27.2235 17.2579 28.0737C19.6126 28.3338 21.2867 26.9797 22.7908 25.3798C24.4278 30.0669 30.7517 28.6864 31.7541 24.3048C32.16 24.283 32.5649 24.2105 32.9563 24.1054C33.2628 24.0238 33.5746 23.6721 33.6397 24.0646C33.8458 25.3109 33.6279 27.1356 34.9901 27.877C37.0285 28.9856 38.6393 26.1249 39.3796 24.6547C39.8885 27.6105 42.0272 27.955 43.8007 25.6436L45.0273 23.567C45.0436 24.6175 44.9613 25.6699 44.8709 26.7177C42.7829 28.2613 39.855 30.6343 40.2446 33.5748C40.5095 35.5753 42.9148 35.6532 44.3322 34.7885C46.8993 33.2213 47.0204 28.9547 47.3314 26.2844L49.9076 24.9719C49.8316 24.8994 49.7711 24.7925 49.6626 24.7607L49.6617 24.7616ZM30.1117 23.2969C28.6663 23.0014 27.8492 21.3925 28.0408 19.9957C28.1375 19.2914 28.8028 18.6614 29.478 19.1744C30.363 19.847 30.2572 22.3007 30.1117 23.2969ZM42.9437 34.1232C42.1094 34.658 41.3239 34.1567 41.2308 33.2213C41.0211 31.1066 43.2041 28.9683 44.7552 27.8272C44.7507 29.514 44.5066 33.1207 42.9437 34.1223V34.1232Z" fill="white"/>
<path d="M90.5815 22.5217C90.4694 22.5824 89.4778 24.3073 89.1849 24.6563C88.3579 25.638 86.9532 26.8807 85.5919 26.2634C84.828 25.9172 84.3345 24.7352 84.2956 23.9266C85.863 23.6792 87.5669 22.7827 88.2837 21.3044C89.5158 18.7646 87.7757 16.5511 85.0459 17.5137C83.2091 18.1618 82.1741 20.0889 81.8415 21.9144C81.7845 22.2253 81.8912 22.6649 81.6996 22.906C81.2892 23.42 79.2337 24.2348 78.563 24.2548C78.036 24.2711 78.375 23.3402 78.3858 22.9813C78.431 21.5618 78.3876 20.1378 78.4735 18.7183C78.5946 16.7007 78.864 11.9492 80.5968 10.6965C80.8173 10.537 81.7809 10.2678 81.3633 9.92696C80.7007 9.38583 78.8974 10.2796 78.3388 10.7899C76.2019 12.7441 75.9488 18.0277 75.8467 20.7995C75.8313 21.2174 75.9497 23.6411 75.8467 23.7454C75.8187 23.7735 75.4607 23.7336 75.3296 23.8614C75.1669 24.0191 75.251 24.4596 75.1986 24.6808C75.0847 25.153 74.1048 26.6305 73.6149 26.7275C72.9876 26.8517 72.9035 25.7821 72.8692 25.3343C72.7074 23.2215 73.0897 20.9155 73.3166 18.8144C73.2795 18.1672 72.1379 18.237 71.6905 18.354C70.5199 18.6603 70.641 20.7379 70.4774 21.6697C70.3834 22.2054 70.0661 23.0665 69.8627 23.5913C69.5572 24.379 68.6144 26.6405 67.5848 26.4701C66.7523 26.3323 66.8346 23.817 66.9132 23.1725C67.0714 21.8818 67.9112 19.0664 69.5689 19.2142C69.8998 19.2441 70.4069 19.6882 70.6121 19.5405C70.9167 19.0084 70.1203 18.4482 69.6539 18.3177C66.8753 17.5382 64.7031 21.0732 64.4726 23.4444C64.3795 24.4071 64.7574 24.6581 63.9619 25.3796C62.7886 26.4429 60.4746 27.3303 59.0437 26.3287C56.2253 24.3554 56.294 14.9748 59.6728 13.8291C61.8214 13.1003 61.6886 16.4523 61.6633 17.7276C61.656 18.1029 61.336 18.7483 62.0574 18.6757C62.9513 18.5851 63.6546 17.3714 63.7378 16.5447C64.1273 12.6607 59.8373 12.0271 57.3678 14.0548C53.866 16.9309 53.3716 26.4039 58.4064 27.875C60.9546 28.6201 62.9938 27.4173 64.6417 25.5646C64.8062 26.6523 65.6152 27.8007 66.7776 27.9122C68.8178 28.1071 69.6467 25.4866 70.3129 24.0409C70.3725 23.9121 70.2586 23.7952 70.5181 23.8424V25.4286C70.5181 25.5745 70.707 26.345 70.7639 26.5417C71.3632 28.6092 73.2398 28.5367 74.4971 27.062C75.0784 26.3803 75.1886 25.7585 75.59 25.076C75.6514 24.9718 75.7228 24.8666 75.8069 25.0189C75.9362 25.2518 75.8268 26.7402 75.8467 27.1544C75.9452 29.1912 76.2137 34.4176 78.7374 34.9506C82.4625 35.7382 82.1533 27.4481 79.9613 25.657C79.5989 25.3606 79.1614 25.2364 78.8332 24.931C79.9405 24.8784 80.9303 24.282 81.8153 23.6611C82.4643 27.7898 86.3014 29.0824 89.1407 25.793C89.5248 25.3479 90.9268 23.2912 90.9096 22.7991C90.9042 22.6513 90.7713 22.4211 90.5815 22.5244V22.5217ZM80.6149 28.7153C80.7749 29.7078 80.9566 32.9492 80.0969 33.5819C79.1514 34.2771 78.7889 32.4289 78.6787 31.8352C78.356 30.0921 78.4436 28.3527 78.3849 26.6006C78.374 26.2815 78.1372 25.9017 78.4256 25.6552C79.9604 26.1166 80.3771 27.2432 80.614 28.7162L80.6149 28.7153ZM86.2897 18.0349C87.3997 17.9261 87.4133 19.3601 87.3066 20.1451C87.105 21.6261 85.7103 23.1843 84.1664 23.2051C84.0127 21.9271 84.7259 18.1872 86.2897 18.0349Z" fill="white"/>
<path d="M43.9888 8.43245C43.6146 8.46508 43.0785 8.50859 42.9475 8.88384C44.8737 8.70165 46.772 9.19203 48.6883 9.33615C49.0914 9.36697 49.5045 9.31711 49.9077 9.33615L54.43 9.34249C54.5023 9.33887 54.5755 9.33615 54.6478 9.33252C54.6469 9.32437 54.646 9.3153 54.6442 9.30714C54.712 9.22103 55.2408 9.19837 55.5445 9.28358C55.6611 9.27633 55.7777 9.26907 55.8952 9.26092C55.9983 9.18568 56.1366 9.12677 56.2279 9.10139C57.1219 9.11045 57.0703 8.60104 56.4168 8.24935C56.283 8.21672 56.1022 8.27926 56.0552 8.06897C56.1619 8.06353 56.2695 8.02274 56.358 7.96383C58.1623 6.75738 59.3338 3.88311 59.4892 1.76662C59.51 1.47656 59.5832 0 59.2642 0H46.6092C46.5288 0 46.1293 0.121461 46.0217 0.181284C47.1896 0.561982 49.6356 0.679816 50.9445 0.728763C53.6743 0.830282 56.4177 0.60549 59.1286 0.363475C59.1629 0.461368 59.0382 0.561075 59.0382 0.589175V1.94881C59.0382 2.40202 58.5717 3.89399 58.3837 4.37439C57.7573 5.97423 56.4105 8.03453 54.5186 8.06625C56.5904 6.53984 57.9932 3.69367 58.1297 1.11943C58.1478 0.774992 57.92 0.80037 57.6362 0.809434C54.3866 0.913673 49.6347 1.482 46.5442 0.609116C46.226 0.51938 45.9277 0.106957 45.8852 0.635402C45.3709 0.408796 44.8773 0.236577 44.3043 0.271021C42.0011 0.412423 41.5645 3.11175 42.6392 4.79588C43.7483 6.5344 46.1184 6.96132 48.0365 6.99758L49.3653 8.15599C47.6226 8.67718 45.7505 8.27563 43.9888 8.43063V8.43245ZM43.2195 3.08274L43.0397 2.81172C42.6519 3.93569 43.4356 4.83758 44.2139 5.52918C43.2421 5.1231 42.3997 3.82329 42.3988 2.76549C42.3979 1.68685 43.2819 0.757769 44.3549 0.723325C44.8873 0.707009 46.2667 1.08952 45.9774 1.81284C45.3438 1.16657 44.2654 0.921831 43.4961 1.50104C43.2539 1.68323 42.7884 2.31228 43.2195 2.53798C43.3723 1.51554 44.6694 1.40133 45.3835 2.04489C45.5462 2.19173 46.2685 3.2178 46.3625 3.41993C46.6897 4.12422 46.8117 5.11313 47.2872 5.8002C45.5869 5.94976 43.3307 5.01795 43.2195 3.08184V3.08274Z" fill="white"/>
<path d="M59.8515 8.88389H59.3082C59.1464 8.25665 59.893 8.60381 60.3396 8.51951L60.3938 8.79235L59.9409 8.88299C59.9111 8.8848 59.8804 8.88118 59.8506 8.88299L59.8515 8.88389Z" fill="white"/>
<path d="M58.4053 8.52246C58.3167 8.77445 57.9352 8.77173 57.7734 8.56687L58.4053 8.52246Z" fill="white"/>
<path d="M57.3206 9.15578C57.2817 9.17119 56.9861 9.1866 56.959 9.11046C57.2356 8.65453 57.5276 9.0742 57.3206 9.15578Z" fill="white"/>
</svg>
