<svg width="180" height="180" viewBox="0 0 180 180" fill="none" xmlns="http://www.w3.org/2000/svg">
  <rect width="180" height="180" rx="37" fill="#2D5A57" />
  <g transform="translate(20 58) scale(1.772)">
    <path d="M48.6781 8.52151C48.5272 8.65113 48.7378 8.71186 49.3109 8.70279C49.6598 9.09709 48.9132 9.32279 48.6348 9.42974C44.8121 10.8972 36.3948 10.7966 32.4066 9.83673C32.0424 9.7488 30.3303 9.30103 30.2445 9.00554C30.2219 8.92668 30.324 8.89767 30.3285 8.88408C34.2262 9.37354 38.2216 9.86211 42.3426 9.63822C44.2236 9.53579 46.0875 9.30194 47.9487 9.03182C47.983 9.02729 47.3539 9.13244 47.3223 8.88408C47.4027 8.5206 46.4427 8.74086 47.1216 8.70279L47.2319 8.88408L46.9236 9.09255C46.2683 9.22489 45.292 9.36539 44.7009 9.156C44.6364 9.05388 44.6364 9.05388 44.7009 9.156L44.4505 9.2974C42.1817 9.58383 39.826 9.67629 37.5473 9.47053L37.2896 9.33819L41.9493 9.34454C42.3426 8.86957 42.715 9.39892 43.2817 9.24846C43.3649 9.2267 43.3676 9.05992 43.4969 8.99466C43.6614 8.91127 43.9678 8.90402 44.1585 8.88408L43.797 8.25049C45.3996 8.63844 47.08 8.25502 48.6781 8.52241V8.52151Z" fill="white"/>
    <path d="M74.8677 11.981C75.4218 11.8668 75.9641 12.6074 75.9641 13.0987C75.9641 13.8238 74.5558 15.0964 73.9312 15.3992C73.6194 15.5505 72.6974 15.9312 72.7227 15.2849C72.7389 14.878 74.1762 12.4986 74.526 12.1886C74.6227 12.1025 74.7384 12.0082 74.8677 11.9819V11.981Z" fill="white"/>
    <path d="M48.6779 8.5214C48.894 8.55766 49.138 8.5078 49.3107 8.70268C49.1254 8.89031 48.7521 8.75979 48.4963 8.79333C48.4899 8.56944 48.4384 8.48333 48.6779 8.5214Z" fill="white"/>
    <path d="M37.0421 24.7616C36.5738 24.6239 35.1863 25.3272 34.6675 25.4714C34.4415 25.223 35.0806 20.5386 35.1185 19.8062C35.1357 19.4654 35.1809 18.6179 35.02 18.3659C34.7407 17.9281 33.2944 17.8429 33.0124 18.336C32.658 18.956 32.6364 20.7761 32.4556 21.5783C32.2205 22.6261 31.3266 24.5504 30.5573 25.2946C29.4636 26.3542 29.1309 25.1251 29.0586 24.1616C28.9321 22.4648 29.1879 20.7661 29.2421 19.0811C29.2575 18.6116 29.3388 18.1574 28.9764 17.8085C28.5551 17.4042 27.3077 17.2936 26.995 17.8239C26.8513 18.0668 26.7645 18.6995 26.7247 19.0031C26.524 20.5232 26.6795 22.1321 26.5801 23.6621C26.0657 24.9302 23.721 28.7272 23.4552 25.1586C23.2997 23.0639 23.5537 20.7725 23.5501 18.675C24.0392 18.6487 24.906 18.5427 25.1808 18.0895C25.612 17.3761 24.7017 17.813 24.3989 17.8484C24.1476 17.8783 23.8909 17.8511 23.6396 17.8583C23.8123 15.8579 23.7906 12.6038 25.4936 11.2414C25.668 11.1019 25.9609 11.0402 26.0585 10.9459C26.11 10.8961 26.1281 10.8136 26.1353 10.7438C26.0965 10.1619 24.9259 10.3613 24.5435 10.4701C21.8318 11.2451 21.3075 15.4291 21.1873 17.8003C20.6892 18.1058 20.1405 18.0559 19.7681 18.6433C19.1507 19.6168 20.1188 18.9732 20.4705 18.8944C20.6838 18.8463 20.8935 18.8427 21.1086 18.8536L20.8384 23.0703C20.371 23.3259 19.8368 23.499 19.3008 23.4763C19.6741 21.8022 19.0703 18.6768 17.0645 18.3315C14.8409 17.949 14.3663 20.2622 15.009 21.9345C15.4447 23.0684 16.2311 23.6785 17.3049 24.1643C17.0491 25.7913 15.0912 28.3202 13.381 26.7394C11.5027 25.0027 12.3614 19.6222 14.7812 18.5363C15.1012 18.3931 15.7746 18.4294 15.5522 18.036C15.3145 17.6145 13.7715 17.9236 13.3367 18.0849C11.4819 18.7747 10.1631 20.961 9.99221 22.889C9.94792 23.3839 10.0926 24.2776 9.97233 24.6819C9.91629 24.8722 9.14072 25.4904 8.93643 25.6372C7.35909 26.7675 5.15895 27.441 3.75606 25.6953C1.92472 23.4156 2.04855 17.8973 3.43607 15.4074C4.66721 13.1993 6.78962 12.9337 7.01199 15.9041C7.04362 16.3283 6.91255 18.5046 7.09243 18.6333C7.51547 18.9342 8.52877 18.0133 8.7448 17.6489C9.69211 16.0464 8.95903 13.754 7.14757 13.1395C-0.45983 10.5616 -3.05137 27.2235 4.63829 28.0737C6.993 28.3338 8.66707 26.9797 10.1712 25.3798C11.8082 30.0669 18.132 28.6864 19.1345 24.3048C19.5403 24.283 19.9453 24.2105 20.3367 24.1054C20.6431 24.0238 20.955 23.6721 21.0201 24.0646C21.2262 25.3109 21.0083 27.1356 22.3705 27.877C24.4089 28.9856 26.0196 26.1249 26.76 24.6547C27.2689 27.6105 29.4075 27.955 31.181 25.6436L32.4077 23.567C32.4239 24.6175 32.3417 25.6699 32.2513 26.7177C30.1632 28.2613 27.2354 30.6343 27.625 33.5748C27.8899 35.5753 30.2952 35.6532 31.7125 34.7885C34.2797 33.2213 34.4008 28.9547 34.7118 26.2844L37.2879 24.9719C37.212 24.8994 37.1514 24.7925 37.043 24.7607L37.0421 24.7616ZM17.4921 23.2969C16.0467 23.0014 15.2295 21.3925 15.4212 19.9957C15.5179 19.2914 16.1832 18.6614 16.8584 19.1744C17.7433 19.847 17.6376 22.3007 17.4921 23.2969ZM30.3241 34.1232C29.4898 34.658 28.7043 34.1567 28.6112 33.2213C28.4015 31.1066 30.5844 28.9683 32.1356 27.8272C32.1311 29.514 31.887 33.1207 30.3241 34.1223V34.1232Z" fill="white"/>
    <path d="M77.9619 22.5217C77.8498 22.5824 76.8582 24.3073 76.5653 24.6563C75.7382 25.638 74.3335 26.8807 72.9722 26.2634C72.2084 25.9172 71.7149 24.7352 71.676 23.9266C73.2434 23.6792 74.9473 22.7827 75.6641 21.3044C76.8962 18.7646 75.1561 16.5511 72.4263 17.5137C70.5895 18.1618 69.5545 20.0889 69.2219 21.9144C69.1649 22.2253 69.2716 22.6649 69.0799 22.906C68.6696 23.42 66.614 24.2348 65.9433 24.2548C65.4163 24.2711 65.7553 23.3402 65.7662 22.9813C65.8114 21.5618 65.768 20.1378 65.8538 18.7183C65.975 16.7007 66.2443 11.9492 67.9772 10.6965C68.1977 10.537 69.1613 10.2678 68.7437 9.92696C68.0811 9.38583 66.2778 10.2796 65.7192 10.7899C63.5823 12.7441 63.3292 18.0277 63.2271 20.7995C63.2117 21.2174 63.3301 23.6411 63.2271 23.7454C63.199 23.7735 62.8411 23.7336 62.71 23.8614C62.5473 24.0191 62.6314 24.4596 62.5789 24.6808C62.465 25.153 61.4852 26.6305 60.9953 26.7275C60.3679 26.8517 60.2839 25.7821 60.2495 25.3343C60.0877 23.2215 60.4701 20.9155 60.697 18.8144C60.6599 18.1672 59.5183 18.237 59.0708 18.354C57.9002 18.6603 58.0214 20.7379 57.8578 21.6697C57.7638 22.2054 57.4465 23.0665 57.2431 23.5913C56.9376 24.379 55.9948 26.6405 54.9652 26.4701C54.1327 26.3323 54.215 23.817 54.2936 23.1725C54.4518 21.8818 55.2915 19.0664 56.9493 19.2142C57.2802 19.2441 57.7873 19.6882 57.9924 19.5405C58.2971 19.0084 57.5007 18.4482 57.0343 18.3177C54.2556 17.5382 52.0835 21.0732 51.853 23.4444C51.7599 24.4071 52.1377 24.6581 51.3423 25.3796C50.169 26.4429 47.855 27.3303 46.4241 26.3287C43.6056 24.3554 43.6743 14.9748 47.0532 13.8291C49.2018 13.1003 49.0689 16.4523 49.0436 17.7276C49.0364 18.1029 48.7164 18.7483 49.4377 18.6757C50.3317 18.5851 51.035 17.3714 51.1181 16.5447C51.5077 12.6607 47.2177 12.0271 44.7482 14.0548C41.2464 16.9309 40.7519 26.4039 45.7868 27.875C48.3349 28.6201 50.3742 27.4173 52.022 25.5646C52.1866 26.6523 52.9956 27.8007 54.158 27.9122C56.1982 28.1071 57.0271 25.4866 57.6932 24.0409C57.7529 23.9121 57.639 23.7952 57.8984 23.8424V25.4286C57.8984 25.5745 58.0874 26.345 58.1443 26.5417C58.7436 28.6092 60.6201 28.5367 61.8775 27.062C62.4587 26.3803 62.569 25.7585 62.9703 25.076C63.0318 24.9718 63.1032 24.8666 63.1873 25.0189C63.3165 25.2518 63.2072 26.7402 63.2271 27.1544C63.3256 29.1912 63.594 34.4176 66.1178 34.9506C69.8429 35.7382 69.5337 27.4481 67.3417 25.657C66.9792 25.3606 66.5417 25.2364 66.2136 24.931C67.3209 24.8784 68.3107 24.282 69.1956 23.6611C69.8447 27.7898 73.6818 29.0824 76.521 25.793C76.9052 25.3479 78.3072 23.2912 78.29 22.7991C78.2846 22.6513 78.1517 22.4211 77.9619 22.5244V22.5217ZM67.9952 28.7153C68.1552 29.7078 68.3369 32.9492 67.4773 33.5819C66.5318 34.2771 66.1693 32.4289 66.059 31.8352C65.7363 30.0921 65.824 28.3527 65.7653 26.6006C65.7544 26.2815 65.5176 25.9017 65.8059 25.6552C67.3408 26.1166 67.7575 27.2432 67.9943 28.7162L67.9952 28.7153ZM73.6701 18.0349C74.7801 17.9261 74.7936 19.3601 74.687 20.1451C74.4854 21.6261 73.0906 23.1843 71.5467 23.2051C71.3931 21.9271 72.1063 18.1872 73.6701 18.0349Z" fill="white"/>
    <path d="M31.3692 8.43245C30.9949 8.46508 30.4589 8.50859 30.3278 8.88384C32.2541 8.70165 34.1523 9.19203 36.0686 9.33615C36.4718 9.36697 36.8849 9.31711 37.288 9.33615L41.8104 9.34249C41.8827 9.33887 41.9559 9.33615 42.0282 9.33252C42.0273 9.32437 42.0264 9.3153 42.0246 9.30714C42.0924 9.22103 42.6212 9.19837 42.9249 9.28358C43.0415 9.27633 43.1581 9.26907 43.2756 9.26092C43.3787 9.18568 43.517 9.12677 43.6083 9.10139C44.5022 9.11045 44.4507 8.60104 43.7972 8.24935C43.6634 8.21672 43.4826 8.27926 43.4356 8.06897C43.5423 8.06353 43.6498 8.02274 43.7384 7.96383C45.5426 6.75738 46.7141 3.88311 46.8696 1.76662C46.8904 1.47656 46.9636 0 46.6445 0H33.9896C33.9092 0 33.5096 0.121461 33.4021 0.181284C34.5699 0.561982 37.016 0.679816 38.3248 0.728763C41.0547 0.830282 43.7981 0.60549 46.5089 0.363475C46.5433 0.461368 46.4185 0.561075 46.4185 0.589175V1.94881C46.4185 2.40202 45.9521 3.89399 45.7641 4.37439C45.1377 5.97423 43.7908 8.03453 41.8989 8.06625C43.9707 6.53984 45.3736 3.69367 45.5101 1.11943C45.5282 0.774992 45.3004 0.80037 45.0166 0.809434C41.767 0.913673 37.015 1.482 33.9245 0.609116C33.6064 0.51938 33.3081 0.106957 33.2656 0.635402C32.7513 0.408796 32.2577 0.236577 31.6846 0.271021C29.3814 0.412423 28.9448 3.11175 30.0196 4.79588C31.1287 6.5344 33.4988 6.96132 35.4169 6.99758L36.7457 8.15599C35.0029 8.67718 33.1309 8.27563 31.3692 8.43063V8.43245ZM30.5999 3.08274L30.42 2.81172C30.0323 3.93569 30.816 4.83758 31.5942 5.52918C30.6225 5.1231 29.7801 3.82329 29.7792 2.76549C29.7783 1.68685 30.6623 0.757769 31.7352 0.723325C32.2677 0.707009 33.647 1.08952 33.3578 1.81284C32.7241 1.16657 31.6458 0.921831 30.8765 1.50104C30.6343 1.68323 30.1687 2.31228 30.5999 2.53798C30.7527 1.51554 32.0498 1.40133 32.7639 2.04489C32.9266 2.19173 33.6488 3.2178 33.7429 3.41993C34.0701 4.12422 34.1921 5.11313 34.6676 5.8002C32.9673 5.94976 30.7111 5.01795 30.5999 3.08184V3.08274Z" fill="white"/>
    <path d="M47.2318 8.88389H46.6886C46.5268 8.25665 47.2734 8.60381 47.7199 8.51951L47.7742 8.79235L47.3213 8.88299C47.2915 8.8848 47.2608 8.88118 47.2309 8.88299L47.2318 8.88389Z" fill="white"/>
    <path d="M45.7856 8.52246C45.6971 8.77445 45.3156 8.77173 45.1538 8.56687L45.7856 8.52246Z" fill="white"/>
    <path d="M44.7009 9.15578C44.6621 9.17119 44.3665 9.1866 44.3394 9.11046C44.616 8.65453 44.9079 9.0742 44.7009 9.15578Z" fill="white"/>
  </g>
</svg>
