<svg width="80" height="37" viewBox="0 0 80 37" fill="none" xmlns="http://www.w3.org/2000/svg">
<path d="M48.6781 9.52151C48.5272 9.65113 48.7378 9.71186 49.3109 9.70279C49.6598 10.0971 48.9132 10.3228 48.6348 10.4297C44.8121 11.8972 36.3948 11.7966 32.4066 10.8367C32.0424 10.7488 30.3303 10.301 30.2445 10.0055C30.2219 9.92668 30.324 9.89767 30.3285 9.88408C34.2262 10.3735 38.2216 10.8621 42.3426 10.6382C44.2236 10.5358 46.0875 10.3019 47.9487 10.0318C47.983 10.0273 47.3539 10.1324 47.3223 9.88408C47.4027 9.5206 46.4427 9.74086 47.1216 9.70279L47.2319 9.88408L46.9236 10.0926C46.2683 10.2249 45.292 10.3654 44.7009 10.156C44.6364 10.0539 44.6364 10.0539 44.7009 10.156L44.4505 10.2974C42.1817 10.5838 39.826 10.6763 37.5473 10.4705L37.2896 10.3382L41.9493 10.3445C42.3426 9.86957 42.715 10.3989 43.2817 10.2485C43.3649 10.2267 43.3676 10.0599 43.4969 9.99466C43.6614 9.91127 43.9678 9.90402 44.1585 9.88408L43.797 9.25049C45.3996 9.63844 47.08 9.25502 48.6781 9.52241V9.52151Z" fill="black" fill-opacity="0.4"/>
<path d="M74.8677 12.981C75.4218 12.8668 75.9641 13.6074 75.9641 14.0987C75.9641 14.8238 74.5558 16.0964 73.9312 16.3992C73.6194 16.5505 72.6974 16.9312 72.7227 16.2849C72.7389 15.878 74.1762 13.4986 74.526 13.1886C74.6227 13.1025 74.7384 13.0082 74.8677 12.9819V12.981Z" fill="black" fill-opacity="0.4"/>
<path d="M48.6779 9.5214C48.894 9.55766 49.138 9.5078 49.3107 9.70268C49.1254 9.89031 48.7521 9.75979 48.4963 9.79333C48.4899 9.56944 48.4384 9.48333 48.6779 9.5214Z" fill="black" fill-opacity="0.4"/>
<path d="M37.0421 25.7616C36.5738 25.6239 35.1863 26.3272 34.6675 26.4714C34.4415 26.223 35.0806 21.5386 35.1185 20.8062C35.1357 20.4654 35.1809 19.6179 35.02 19.3659C34.7407 18.9281 33.2944 18.8429 33.0124 19.336C32.658 19.956 32.6364 21.7761 32.4556 22.5783C32.2205 23.6261 31.3266 25.5504 30.5573 26.2946C29.4636 27.3542 29.1309 26.1251 29.0586 25.1616C28.9321 23.4648 29.1879 21.7661 29.2421 20.0811C29.2575 19.6116 29.3388 19.1574 28.9764 18.8085C28.5551 18.4042 27.3077 18.2936 26.995 18.8239C26.8513 19.0668 26.7645 19.6995 26.7247 20.0031C26.524 21.5232 26.6795 23.1321 26.5801 24.6621C26.0657 25.9302 23.721 29.7272 23.4552 26.1586C23.2997 24.0639 23.5537 21.7725 23.5501 19.675C24.0392 19.6487 24.906 19.5427 25.1808 19.0895C25.612 18.3761 24.7017 18.813 24.3989 18.8484C24.1476 18.8783 23.8909 18.8511 23.6396 18.8583C23.8123 16.8579 23.7906 13.6038 25.4936 12.2414C25.668 12.1019 25.9609 12.0402 26.0585 11.9459C26.11 11.8961 26.1281 11.8136 26.1353 11.7438C26.0965 11.1619 24.9259 11.3613 24.5435 11.4701C21.8318 12.2451 21.3075 16.4291 21.1873 18.8003C20.6892 19.1058 20.1405 19.0559 19.7681 19.6433C19.1507 20.6168 20.1188 19.9732 20.4705 19.8944C20.6838 19.8463 20.8935 19.8427 21.1086 19.8536L20.8384 24.0703C20.371 24.3259 19.8368 24.499 19.3008 24.4763C19.6741 22.8022 19.0703 19.6768 17.0645 19.3315C14.8409 18.949 14.3663 21.2622 15.009 22.9345C15.4447 24.0684 16.2311 24.6785 17.3049 25.1643C17.0491 26.7913 15.0912 29.3202 13.381 27.7394C11.5027 26.0027 12.3614 20.6222 14.7812 19.5363C15.1012 19.3931 15.7746 19.4294 15.5522 19.036C15.3145 18.6145 13.7715 18.9236 13.3367 19.0849C11.4819 19.7747 10.1631 21.961 9.99221 23.889C9.94792 24.3839 10.0926 25.2776 9.97233 25.6819C9.91629 25.8722 9.14072 26.4904 8.93643 26.6372C7.35909 27.7675 5.15895 28.441 3.75606 26.6953C1.92472 24.4156 2.04855 18.8973 3.43607 16.4074C4.66721 14.1993 6.78962 13.9337 7.01199 16.9041C7.04362 17.3283 6.91255 19.5046 7.09243 19.6333C7.51547 19.9342 8.52877 19.0133 8.7448 18.6489C9.69211 17.0464 8.95903 14.754 7.14757 14.1395C-0.45983 11.5616 -3.05137 28.2235 4.63829 29.0737C6.993 29.3338 8.66707 27.9797 10.1712 26.3798C11.8082 31.0669 18.132 29.6864 19.1345 25.3048C19.5403 25.283 19.9453 25.2105 20.3367 25.1054C20.6431 25.0238 20.955 24.6721 21.0201 25.0646C21.2262 26.3109 21.0083 28.1356 22.3705 28.877C24.4089 29.9856 26.0196 27.1249 26.76 25.6547C27.2689 28.6105 29.4075 28.955 31.181 26.6436L32.4077 24.567C32.4239 25.6175 32.3417 26.6699 32.2513 27.7177C30.1632 29.2613 27.2354 31.6343 27.625 34.5748C27.8899 36.5753 30.2952 36.6532 31.7125 35.7885C34.2797 34.2213 34.4008 29.9547 34.7118 27.2844L37.2879 25.9719C37.212 25.8994 37.1514 25.7925 37.043 25.7607L37.0421 25.7616ZM17.4921 24.2969C16.0467 24.0014 15.2295 22.3925 15.4212 20.9957C15.5179 20.2914 16.1832 19.6614 16.8584 20.1744C17.7433 20.847 17.6376 23.3007 17.4921 24.2969ZM30.3241 35.1232C29.4898 35.658 28.7043 35.1567 28.6112 34.2213C28.4015 32.1066 30.5844 29.9683 32.1356 28.8272C32.1311 30.514 31.887 34.1207 30.3241 35.1223V35.1232Z" fill="black" fill-opacity="0.4"/>
<path d="M77.9619 23.5217C77.8498 23.5824 76.8582 25.3073 76.5653 25.6563C75.7382 26.638 74.3335 27.8807 72.9722 27.2634C72.2084 26.9172 71.7149 25.7352 71.676 24.9266C73.2434 24.6792 74.9473 23.7827 75.6641 22.3044C76.8962 19.7646 75.1561 17.5511 72.4263 18.5137C70.5895 19.1618 69.5545 21.0889 69.2219 22.9144C69.1649 23.2253 69.2716 23.6649 69.0799 23.906C68.6696 24.42 66.614 25.2348 65.9433 25.2548C65.4163 25.2711 65.7553 24.3402 65.7662 23.9813C65.8114 22.5618 65.768 21.1378 65.8538 19.7183C65.975 17.7007 66.2443 12.9492 67.9772 11.6965C68.1977 11.537 69.1613 11.2678 68.7437 10.927C68.0811 10.3858 66.2778 11.2796 65.7192 11.7899C63.5823 13.7441 63.3292 19.0277 63.2271 21.7995C63.2117 22.2174 63.3301 24.6411 63.2271 24.7454C63.199 24.7735 62.8411 24.7336 62.71 24.8614C62.5473 25.0191 62.6314 25.4596 62.5789 25.6808C62.465 26.153 61.4852 27.6305 60.9953 27.7275C60.3679 27.8517 60.2839 26.7821 60.2495 26.3343C60.0877 24.2215 60.4701 21.9155 60.697 19.8144C60.6599 19.1672 59.5183 19.237 59.0708 19.354C57.9002 19.6603 58.0214 21.7379 57.8578 22.6697C57.7638 23.2054 57.4465 24.0665 57.2431 24.5913C56.9376 25.379 55.9948 27.6405 54.9652 27.4701C54.1327 27.3323 54.215 24.817 54.2936 24.1725C54.4518 22.8818 55.2915 20.0664 56.9493 20.2142C57.2802 20.2441 57.7873 20.6882 57.9924 20.5405C58.2971 20.0084 57.5007 19.4482 57.0343 19.3177C54.2556 18.5382 52.0835 22.0732 51.853 24.4444C51.7599 25.4071 52.1377 25.6581 51.3423 26.3796C50.169 27.4429 47.855 28.3303 46.4241 27.3287C43.6056 25.3554 43.6743 15.9748 47.0532 14.8291C49.2018 14.1003 49.0689 17.4523 49.0436 18.7276C49.0364 19.1029 48.7164 19.7483 49.4377 19.6757C50.3317 19.5851 51.035 18.3714 51.1181 17.5447C51.5077 13.6607 47.2177 13.0271 44.7482 15.0548C41.2464 17.9309 40.7519 27.4039 45.7868 28.875C48.3349 29.6201 50.3742 28.4173 52.022 26.5646C52.1866 27.6523 52.9956 28.8007 54.158 28.9122C56.1982 29.1071 57.0271 26.4866 57.6932 25.0409C57.7529 24.9121 57.639 24.7952 57.8984 24.8424V26.4286C57.8984 26.5745 58.0874 27.345 58.1443 27.5417C58.7436 29.6092 60.6201 29.5367 61.8775 28.062C62.4587 27.3803 62.569 26.7585 62.9703 26.076C63.0318 25.9718 63.1032 25.8666 63.1873 26.0189C63.3165 26.2518 63.2072 27.7402 63.2271 28.1544C63.3256 30.1912 63.594 35.4176 66.1178 35.9506C69.8429 36.7382 69.5337 28.4481 67.3417 26.657C66.9792 26.3606 66.5417 26.2364 66.2136 25.931C67.3209 25.8784 68.3107 25.282 69.1956 24.6611C69.8447 28.7898 73.6818 30.0824 76.521 26.793C76.9052 26.3479 78.3072 24.2912 78.29 23.7991C78.2846 23.6513 78.1517 23.4211 77.9619 23.5244V23.5217ZM67.9952 29.7153C68.1552 30.7078 68.3369 33.9492 67.4773 34.5819C66.5318 35.2771 66.1693 33.4289 66.059 32.8352C65.7363 31.0921 65.824 29.3527 65.7653 27.6006C65.7544 27.2815 65.5176 26.9017 65.8059 26.6552C67.3408 27.1166 67.7575 28.2432 67.9943 29.7162L67.9952 29.7153ZM73.6701 19.0349C74.7801 18.9261 74.7936 20.3601 74.687 21.1451C74.4854 22.6261 73.0906 24.1843 71.5467 24.2051C71.3931 22.9271 72.1063 19.1872 73.6701 19.0349Z" fill="black" fill-opacity="0.4"/>
<path d="M31.3692 9.43245C30.9949 9.46508 30.4589 9.50859 30.3278 9.88384C32.2541 9.70165 34.1523 10.192 36.0686 10.3361C36.4718 10.367 36.8849 10.3171 37.288 10.3361L41.8104 10.3425C41.8827 10.3389 41.9559 10.3362 42.0282 10.3325C42.0273 10.3244 42.0264 10.3153 42.0246 10.3071C42.0924 10.221 42.6212 10.1984 42.9249 10.2836C43.0415 10.2763 43.1581 10.2691 43.2756 10.2609C43.3787 10.1857 43.517 10.1268 43.6083 10.1014C44.5022 10.1105 44.4507 9.60104 43.7972 9.24935C43.6634 9.21672 43.4826 9.27926 43.4356 9.06897C43.5423 9.06353 43.6498 9.02274 43.7384 8.96383C45.5426 7.75738 46.7141 4.88311 46.8696 2.76662C46.8904 2.47656 46.9636 1 46.6445 1H33.9896C33.9092 1 33.5096 1.12146 33.4021 1.18128C34.5699 1.56198 37.016 1.67982 38.3248 1.72876C41.0547 1.83028 43.7981 1.60549 46.5089 1.36347C46.5433 1.46137 46.4185 1.56108 46.4185 1.58917V2.94881C46.4185 3.40202 45.9521 4.89399 45.7641 5.37439C45.1377 6.97423 43.7908 9.03453 41.8989 9.06625C43.9707 7.53984 45.3736 4.69367 45.5101 2.11943C45.5282 1.77499 45.3004 1.80037 45.0166 1.80943C41.767 1.91367 37.015 2.482 33.9245 1.60912C33.6064 1.51938 33.3081 1.10696 33.2656 1.6354C32.7513 1.4088 32.2577 1.23658 31.6846 1.27102C29.3814 1.41242 28.9448 4.11175 30.0196 5.79588C31.1287 7.5344 33.4988 7.96132 35.4169 7.99758L36.7457 9.15599C35.0029 9.67718 33.1309 9.27563 31.3692 9.43063V9.43245ZM30.5999 4.08274L30.42 3.81172C30.0323 4.93569 30.816 5.83758 31.5942 6.52918C30.6225 6.1231 29.7801 4.82329 29.7792 3.76549C29.7783 2.68685 30.6623 1.75777 31.7352 1.72332C32.2677 1.70701 33.647 2.08952 33.3578 2.81284C32.7241 2.16657 31.6458 1.92183 30.8765 2.50104C30.6343 2.68323 30.1687 3.31228 30.5999 3.53798C30.7527 2.51554 32.0498 2.40133 32.7639 3.04489C32.9266 3.19173 33.6488 4.2178 33.7429 4.41993C34.0701 5.12422 34.1921 6.11313 34.6676 6.8002C32.9673 6.94976 30.7111 6.01795 30.5999 4.08184V4.08274Z" fill="black" fill-opacity="0.4"/>
<path d="M47.2318 9.88389H46.6886C46.5268 9.25665 47.2734 9.60381 47.7199 9.51951L47.7742 9.79235L47.3213 9.88299C47.2915 9.8848 47.2608 9.88118 47.2309 9.88299L47.2318 9.88389Z" fill="black" fill-opacity="0.4"/>
<path d="M45.7856 9.52246C45.6971 9.77445 45.3156 9.77173 45.1538 9.56687L45.7856 9.52246Z" fill="black" fill-opacity="0.4"/>
<path d="M44.7009 10.1558C44.6621 10.1712 44.3665 10.1866 44.3394 10.1105C44.616 9.65453 44.9079 10.0742 44.7009 10.1558Z" fill="black" fill-opacity="0.4"/>
<path d="M50.0585 8.52151C49.9076 8.65113 50.1182 8.71186 50.6913 8.70279C51.0402 9.09709 50.2935 9.32279 50.0151 9.42974C46.1924 10.8972 37.7751 10.7966 33.787 9.83673C33.4227 9.7488 31.7107 9.30103 31.6248 9.00554C31.6022 8.92668 31.7044 8.89767 31.7089 8.88408C35.6066 9.37354 39.6019 9.86211 43.7229 9.63822C45.604 9.53579 47.4679 9.30194 49.3291 9.03182C49.3634 9.02729 48.7343 9.13244 48.7026 8.88408C48.7831 8.5206 47.8231 8.74086 48.502 8.70279L48.6122 8.88408L48.304 9.09255C47.6487 9.22489 46.6724 9.36539 46.0813 9.156C46.0168 9.05388 46.0168 9.05388 46.0813 9.156L45.8309 9.2974C43.562 9.58383 41.2064 9.67629 38.9276 9.47053L38.67 9.33819L43.3297 9.34454C43.7229 8.86957 44.0953 9.39892 44.6621 9.24846C44.7453 9.2267 44.748 9.05992 44.8772 8.99466C45.0418 8.91127 45.3482 8.90402 45.5389 8.88408L45.1773 8.25049C46.78 8.63844 48.4604 8.25502 50.0585 8.52241V8.52151Z" fill="white"/>
<path d="M76.2481 11.981C76.8022 11.8668 77.3445 12.6074 77.3445 13.0987C77.3445 13.8238 75.9362 15.0964 75.3116 15.3992C74.9997 15.5505 74.0777 15.9312 74.103 15.2849C74.1193 14.878 75.5566 12.4986 75.9064 12.1886C76.0031 12.1025 76.1188 12.0082 76.2481 11.9819V11.981Z" fill="white"/>
<path d="M50.0583 8.5214C50.2743 8.55766 50.5184 8.5078 50.6911 8.70268C50.5057 8.89031 50.1324 8.75979 49.8766 8.79333C49.8703 8.56944 49.8188 8.48333 50.0583 8.5214Z" fill="white"/>
<path d="M38.4224 24.7616C37.9542 24.6239 36.5667 25.3272 36.0478 25.4714C35.8219 25.223 36.4609 20.5386 36.4989 19.8062C36.5161 19.4654 36.5613 18.6179 36.4004 18.3659C36.1211 17.9281 34.6748 17.8429 34.3928 18.336C34.0384 18.956 34.0167 20.7761 33.8359 21.5783C33.6009 22.6261 32.7069 24.5504 31.9377 25.2946C30.844 26.3542 30.5113 25.1251 30.439 24.1616C30.3125 22.4648 30.5683 20.7661 30.6225 19.0811C30.6379 18.6116 30.7192 18.1574 30.3567 17.8085C29.9355 17.4042 28.6881 17.2936 28.3753 17.8239C28.2316 18.0668 28.1448 18.6995 28.1051 19.0031C27.9044 20.5232 28.0599 22.1321 27.9604 23.6621C27.4461 24.9302 25.1013 28.7272 24.8356 25.1586C24.6801 23.0639 24.9341 20.7725 24.9305 18.675C25.4195 18.6487 26.2864 18.5427 26.5612 18.0895C26.9923 17.3761 26.0821 17.813 25.7793 17.8484C25.528 17.8783 25.2713 17.8511 25.02 17.8583C25.1926 15.8579 25.1709 12.6038 26.8739 11.2414C27.0484 11.1019 27.3413 11.0402 27.4389 10.9459C27.4904 10.8961 27.5085 10.8136 27.5157 10.7438C27.4769 10.1619 26.3063 10.3613 25.9239 10.4701C23.2122 11.2451 22.6879 15.4291 22.5677 17.8003C22.0696 18.1058 21.5209 18.0559 21.1485 18.6433C20.5311 19.6168 21.4992 18.9732 21.8508 18.8944C22.0642 18.8463 22.2739 18.8427 22.489 18.8536L22.2187 23.0703C21.7514 23.3259 21.2172 23.499 20.6812 23.4763C21.0545 21.8022 20.4507 18.6768 18.4449 18.3315C16.2212 17.949 15.7467 20.2622 16.3893 21.9345C16.825 23.0684 17.6115 23.6785 18.6853 24.1643C18.4295 25.7913 16.4716 28.3202 14.7614 26.7394C12.883 25.0027 13.7418 19.6222 16.1616 18.5363C16.4816 18.3931 17.155 18.4294 16.9326 18.036C16.6949 17.6145 15.1519 17.9236 14.7171 18.0849C12.8622 18.7747 11.5434 20.961 11.3726 22.889C11.3283 23.3839 11.4729 24.2776 11.3527 24.6819C11.2967 24.8722 10.5211 25.4904 10.3168 25.6372C8.73946 26.7675 6.53932 27.441 5.13643 25.6953C3.30509 23.4156 3.42892 17.8973 4.81644 15.4074C6.04758 13.1993 8.16999 12.9337 8.39236 15.9041C8.42399 16.3283 8.29293 18.5046 8.47281 18.6333C8.89584 18.9342 9.90914 18.0133 10.1252 17.6489C11.0725 16.0464 10.3394 13.754 8.52795 13.1395C0.920542 10.5616 -1.671 27.2235 6.01866 28.0737C8.37337 28.3338 10.0474 26.9797 11.5516 25.3798C13.1886 30.0669 19.5124 28.6864 20.5148 24.3048C20.9207 24.283 21.3257 24.2105 21.7171 24.1054C22.0235 24.0238 22.3353 23.6721 22.4004 24.0646C22.6065 25.3109 22.3887 27.1356 23.7509 27.877C25.7892 28.9856 27.4 26.1249 28.1403 24.6547C28.6492 27.6105 30.7879 27.955 32.5614 25.6436L33.788 23.567C33.8043 24.6175 33.722 25.6699 33.6317 26.7177C31.5436 28.2613 28.6158 30.6343 29.0054 33.5748C29.2702 35.5753 31.6756 35.6532 33.0929 34.7885C35.6601 33.2213 35.7812 28.9547 36.0921 26.2844L38.6683 24.9719C38.5924 24.8994 38.5318 24.7925 38.4233 24.7607L38.4224 24.7616ZM18.8724 23.2969C17.4271 23.0014 16.6099 21.3925 16.8015 19.9957C16.8983 19.2914 17.5635 18.6614 18.2388 19.1744C19.1237 19.847 19.018 22.3007 18.8724 23.2969ZM31.7045 34.1232C30.8702 34.658 30.0847 34.1567 29.9916 33.2213C29.7819 31.1066 31.9648 28.9683 33.5159 27.8272C33.5114 29.514 33.2674 33.1207 31.7045 34.1223V34.1232Z" fill="white"/>
<path d="M79.3422 22.5217C79.2302 22.5824 78.2386 24.3073 77.9457 24.6563C77.1186 25.638 75.7139 26.8807 74.3526 26.2634C73.5888 25.9172 73.0952 24.7352 73.0564 23.9266C74.6238 23.6792 76.3277 22.7827 77.0445 21.3044C78.2765 18.7646 76.5365 16.5511 73.8066 17.5137C71.9699 18.1618 70.9349 20.0889 70.6022 21.9144C70.5453 22.2253 70.6519 22.6649 70.4603 22.906C70.0499 23.42 67.9944 24.2348 67.3237 24.2548C66.7967 24.2711 67.1357 23.3402 67.1465 22.9813C67.1917 21.5618 67.1483 20.1378 67.2342 18.7183C67.3553 16.7007 67.6247 11.9492 69.3575 10.6965C69.5781 10.537 70.5417 10.2678 70.1241 9.92696C69.4615 9.38583 67.6582 10.2796 67.0995 10.7899C64.9627 12.7441 64.7096 18.0277 64.6074 20.7995C64.5921 21.2174 64.7105 23.6411 64.6074 23.7454C64.5794 23.7735 64.2215 23.7336 64.0904 23.8614C63.9277 24.0191 64.0117 24.4596 63.9593 24.6808C63.8454 25.153 62.8656 26.6305 62.3756 26.7275C61.7483 26.8517 61.6643 25.7821 61.6299 25.3343C61.4681 23.2215 61.8505 20.9155 62.0773 18.8144C62.0403 18.1672 60.8986 18.237 60.4512 18.354C59.2806 18.6603 59.4017 20.7379 59.2381 21.6697C59.1441 22.2054 58.8268 23.0665 58.6235 23.5913C58.3179 24.379 57.3752 26.6405 56.3456 26.4701C55.5131 26.3323 55.5953 23.817 55.674 23.1725C55.8322 21.8818 56.6719 19.0664 58.3297 19.2142C58.6605 19.2441 59.1676 19.6882 59.3728 19.5405C59.6774 19.0084 58.8811 18.4482 58.4147 18.3177C55.636 17.5382 53.4639 21.0732 53.2334 23.4444C53.1403 24.4071 53.5181 24.6581 52.7227 25.3796C51.5494 26.4429 49.2353 27.3303 47.8044 26.3287C44.986 24.3554 45.0547 14.9748 48.4336 13.8291C50.5822 13.1003 50.4493 16.4523 50.424 17.7276C50.4168 18.1029 50.0968 18.7483 50.8181 18.6757C51.7121 18.5851 52.4153 17.3714 52.4985 16.5447C52.8881 12.6607 48.5981 12.0271 46.1286 14.0548C42.6268 16.9309 42.1323 26.4039 47.1672 27.875C49.7153 28.6201 51.7546 27.4173 53.4024 25.5646C53.5669 26.6523 54.3759 27.8007 55.5384 27.9122C57.5785 28.1071 58.4074 25.4866 59.0736 24.0409C59.1333 23.9121 59.0194 23.7952 59.2788 23.8424V25.4286C59.2788 25.5745 59.4677 26.345 59.5247 26.5417C60.124 28.6092 62.0005 28.5367 63.2579 27.062C63.8391 26.3803 63.9494 25.7585 64.3507 25.076C64.4122 24.9718 64.4836 24.8666 64.5677 25.0189C64.6969 25.2518 64.5875 26.7402 64.6074 27.1544C64.706 29.1912 64.9744 34.4176 67.4982 34.9506C71.2232 35.7382 70.9141 27.4481 68.7221 25.657C68.3596 25.3606 67.9221 25.2364 67.594 24.931C68.7013 24.8784 69.6911 24.282 70.576 23.6611C71.225 27.7898 75.0622 29.0824 77.9014 25.793C78.2856 25.3479 79.6875 23.2912 79.6704 22.7991C79.6649 22.6513 79.5321 22.4211 79.3422 22.5244V22.5217ZM69.3756 28.7153C69.5356 29.7078 69.7173 32.9492 68.8577 33.5819C67.9122 34.2771 67.5497 32.4289 67.4394 31.8352C67.1167 30.0921 67.2044 28.3527 67.1456 26.6006C67.1348 26.2815 66.898 25.9017 67.1863 25.6552C68.7212 26.1166 69.1379 27.2432 69.3747 28.7162L69.3756 28.7153ZM75.0504 18.0349C76.1604 17.9261 76.174 19.3601 76.0673 20.1451C75.8658 21.6261 74.471 23.1843 72.9271 23.2051C72.7735 21.9271 73.4866 18.1872 75.0504 18.0349Z" fill="white"/>
<path d="M32.7495 8.43245C32.3753 8.46508 31.8393 8.50859 31.7082 8.88384C33.6345 8.70165 35.5327 9.19203 37.449 9.33615C37.8522 9.36697 38.2653 9.31711 38.6684 9.33615L43.1907 9.34249C43.263 9.33887 43.3363 9.33615 43.4086 9.33252C43.4077 9.32437 43.4068 9.3153 43.405 9.30714C43.4727 9.22103 44.0015 9.19837 44.3053 9.28358C44.4219 9.27633 44.5385 9.26907 44.656 9.26092C44.759 9.18568 44.8973 9.12677 44.9886 9.10139C45.8826 9.11045 45.8311 8.60104 45.1775 8.24935C45.0438 8.21672 44.863 8.27926 44.816 8.06897C44.9226 8.06353 45.0302 8.02274 45.1188 7.96383C46.923 6.75738 48.0945 3.88311 48.25 1.76662C48.2708 1.47656 48.344 0 48.0249 0H35.37C35.2895 0 34.89 0.121461 34.7824 0.181284C35.9503 0.561982 38.3963 0.679816 39.7052 0.728763C42.435 0.830282 45.1784 0.60549 47.8893 0.363475C47.9237 0.461368 47.7989 0.561075 47.7989 0.589175V1.94881C47.7989 2.40202 47.3325 3.89399 47.1445 4.37439C46.5181 5.97423 45.1712 8.03453 43.2793 8.06625C45.3511 6.53984 46.754 3.69367 46.8905 1.11943C46.9086 0.774992 46.6808 0.80037 46.3969 0.809434C43.1473 0.913673 38.3954 1.482 35.3049 0.609116C34.9867 0.51938 34.6884 0.106957 34.646 0.635402C34.1316 0.408796 33.6381 0.236577 33.065 0.271021C30.7618 0.412423 30.3252 3.11175 31.4 4.79588C32.5091 6.5344 34.8792 6.96132 36.7973 6.99758L38.1261 8.15599C36.3833 8.67718 34.5113 8.27563 32.7495 8.43063V8.43245ZM31.9803 3.08274L31.8004 2.81172C31.4126 3.93569 32.1963 4.83758 32.9746 5.52918C32.0029 5.1231 31.1604 3.82329 31.1595 2.76549C31.1586 1.68685 32.0427 0.757769 33.1156 0.723325C33.648 0.707009 35.0274 1.08952 34.7382 1.81284C34.1045 1.16657 33.0261 0.921831 32.2569 1.50104C32.0146 1.68323 31.5491 2.31228 31.9803 2.53798C32.1331 1.51554 33.4302 1.40133 34.1443 2.04489C34.307 2.19173 35.0292 3.2178 35.1232 3.41993C35.4504 4.12422 35.5725 5.11313 36.0479 5.8002C34.3477 5.94976 32.0915 5.01795 31.9803 3.08184V3.08274Z" fill="white"/>
<path d="M48.6122 8.88389H48.0689C47.9071 8.25665 48.6538 8.60381 49.1003 8.51951L49.1545 8.79235L48.7017 8.88299C48.6719 8.8848 48.6411 8.88118 48.6113 8.88299L48.6122 8.88389Z" fill="white"/>
<path d="M47.166 8.52246C47.0774 8.77445 46.696 8.77173 46.5342 8.56687L47.166 8.52246Z" fill="white"/>
<path d="M46.0813 9.15578C46.0424 9.17119 45.7468 9.1866 45.7197 9.11046C45.9963 8.65453 46.2883 9.0742 46.0813 9.15578Z" fill="white"/>
</svg>
